<svg width="23" height="23" viewBox="0 0 23 23" fill="none" xmlns="http://www.w3.org/2000/svg">
<path d="M11.5 13.2737C11.2415 13.2737 10.9936 13.171 10.8108 12.9883C10.6281 12.8055 10.5254 12.5576 10.5254 12.2991V6.84152C10.5254 6.58305 10.6281 6.33516 10.8108 6.15239C10.9936 5.96962 11.2415 5.86694 11.5 5.86694C11.7584 5.86694 12.0063 5.96962 12.1891 6.15239C12.3719 6.33516 12.4745 6.58305 12.4745 6.84152V12.2991C12.4745 12.5576 12.3719 12.8055 12.1891 12.9883C12.0063 13.171 11.7584 13.2737 11.5 13.2737V13.2737Z" fill="#363BC4"/>
<path d="M11.5 17.1526C11.2415 17.1526 10.9936 17.0499 10.8108 16.8671C10.6281 16.6844 10.5254 16.4365 10.5254 16.178V15.7219C10.5254 15.4634 10.6281 15.2155 10.8108 15.0328C10.9936 14.85 11.2415 14.7473 11.5 14.7473C11.7584 14.7473 12.0063 14.85 12.1891 15.0328C12.3719 15.2155 12.4745 15.4634 12.4745 15.7219V16.178C12.4745 16.4365 12.3719 16.6844 12.1891 16.8671C12.0063 17.0499 11.7584 17.1526 11.5 17.1526Z" fill="#363BC4"/>
<path d="M11.5 23C9.22552 23 7.00211 22.3255 5.11095 21.0619C3.21978 19.7983 1.7458 18.0022 0.875391 15.9009C0.00498276 13.7995 -0.222756 11.4872 0.220974 9.25647C0.664705 7.02568 1.75997 4.97658 3.36828 3.36828C4.97658 1.75997 7.02568 0.664705 9.25647 0.220974C11.4872 -0.222756 13.7995 0.00498276 15.9009 0.875391C18.0022 1.7458 19.7983 3.21978 21.0619 5.11095C22.3255 7.00211 23 9.22552 23 11.5C22.9969 14.549 21.7843 17.4723 19.6283 19.6283C17.4723 21.7843 14.549 22.9969 11.5 23V23ZM11.5 1.94916C9.61103 1.94916 7.76447 2.50931 6.19384 3.55877C4.62321 4.60823 3.39905 6.09986 2.67617 7.84505C1.95329 9.59024 1.76415 11.5106 2.13267 13.3633C2.5012 15.216 3.41083 16.9178 4.74654 18.2535C6.08225 19.5892 7.78404 20.4988 9.63673 20.8673C11.4894 21.2359 13.4098 21.0467 15.155 20.3238C16.9001 19.601 18.3918 18.3768 19.4412 16.8062C20.4907 15.2355 21.0509 13.389 21.0509 11.5C21.0478 8.96791 20.0405 6.54042 18.2501 4.74995C16.4596 2.95949 14.0321 1.95225 11.5 1.94916V1.94916Z" fill="#363BC4"/>
</svg>
