<?xml version="1.0" encoding="UTF-8" standalone="no"?>
<svg
   xmlns:dc="http://purl.org/dc/elements/1.1/"
   xmlns:cc="http://creativecommons.org/ns#"
   xmlns:rdf="http://www.w3.org/1999/02/22-rdf-syntax-ns#"
   xmlns:svg="http://www.w3.org/2000/svg"
   xmlns="http://www.w3.org/2000/svg"
   id="svg4180"
   version="1.1"
   viewBox="0 0 8.4666662 8.4872513"
   height="8.4872513mm"
   width="8.4666662mm">
  <defs
     id="defs4174" />
  <metadata
     id="metadata4177">
    <rdf:RDF>
      <cc:Work
         rdf:about="">
        <dc:format>image/svg+xml</dc:format>
        <dc:type
           rdf:resource="http://purl.org/dc/dcmitype/StillImage" />
        <dc:title></dc:title>
      </cc:Work>
    </rdf:RDF>
  </metadata>
  <g
     transform="translate(-112.93929,-137.11947)"
     id="layer1">
    <g
       id="g1231"
       transform="matrix(0.26458333,0,0,0.26458333,116.64522,135.99383)">
      <path
         fill="#abb0b4"
         d="m -8.4560376,4.2543725 c -3.0758854,0 -5.5506374,2.4747519 -5.5506374,5.5506377 V 30.778852 c 0,3.075885 2.474752,5.55332 5.5506374,5.55332 H 12.442689 c 3.075885,0 5.550636,-2.477435 5.550636,-5.55332 V 9.8050102 c 0,-3.0758858 -2.474751,-5.5506377 -5.550636,-5.5506377 z"
         id="path1197"
         style="fill:#58cc00;fill-opacity:1;stroke-width:1.37357" />
      <path
         d="m 1.9933259,12.020179 c -1.63624999,0 -3.2357772,0.485208 -4.5962776,1.394263 -1.3605004,0.909063 -2.4208782,2.201137 -3.0470501,3.712853 -0.6261737,1.511682 -0.7900057,3.175151 -0.4707887,4.779964 0.3192161,1.604813 1.1071532,3.07891 2.2641692,4.235984 1.1570077,1.15699 2.6311299,1.944919 4.23595121,2.264177 1.60481299,0.319176 3.26828139,0.155369 4.77993929,-0.470821 1.5117413,-0.62619 2.8038305,-1.686551 3.7128778,-3.04706 0.9090452,-1.360508 1.394262,-2.960025 1.394262,-4.596276 0,-1.086422 -0.214025,-2.162237 -0.6297471,-3.165968 C 9.2209395,16.123553 8.6115441,15.211537 7.8433061,14.443307 7.0750681,13.675086 6.1630426,13.065689 5.1592692,12.649926 4.1555782,12.234172 3.0797467,12.020179 1.9933259,12.020179 Z m 3.5574255,6.295816 -3.7807986,4.963851 c -0.077109,0.100103 -0.1760518,0.181263 -0.2893099,0.237189 -0.1133416,0.05593 -0.2379337,0.08512 -0.3642638,0.08546 -0.12566869,6.62e-4 -0.24984669,-0.0273 -0.36310589,-0.08173 -0.1131757,-0.05452 -0.2125356,-0.134024 -0.2904678,-0.232639 L -1.5558272,20.715197 c -0.066807,-0.08579 -0.1160716,-0.183994 -0.1449527,-0.288813 -0.028886,-0.104904 -0.036829,-0.214439 -0.023385,-0.32232 0.013444,-0.107963 0.048017,-0.212204 0.1017407,-0.306766 0.053734,-0.09456 0.1255533,-0.177622 0.2113787,-0.244469 0.1733455,-0.134935 0.3931862,-0.195493 0.61117351,-0.168357 0.1079311,0.01348 0.2121637,0.04807 0.3067416,0.101761 0.094581,0.05369 0.1776393,0.125586 0.2444527,0.211378 l 1.34851319,1.720801 3.127225,-4.136542 c 0.066261,-0.08692 0.1489982,-0.159927 0.2434761,-0.214861 0.09456,-0.05494 0.1988857,-0.09073 0.3072628,-0.105324 0.1082958,-0.0146 0.2184098,-0.0077 0.3240569,0.02025 0.1056471,0.02796 0.2047588,0.07647 0.2917081,0.142744 0.086947,0.06627 0.1599192,0.149015 0.2148525,0.243501 0.054929,0.0945 0.090759,0.198877 0.1053165,0.307196 0.014639,0.10832 0.00773,0.218452 -0.020274,0.324115 -0.027959,0.105664 -0.076439,0.204776 -0.142711,0.291692 z"
         fill="#58cc00"
         id="path1199"
         style="fill:#ffffff;stroke-width:0.827309" />
    </g>
  </g>
</svg>
