<?xml version="1.0" encoding="UTF-8" standalone="no"?>
<svg
   xmlns:dc="http://purl.org/dc/elements/1.1/"
   xmlns:cc="http://creativecommons.org/ns#"
   xmlns:rdf="http://www.w3.org/1999/02/22-rdf-syntax-ns#"
   xmlns:svg="http://www.w3.org/2000/svg"
   xmlns="http://www.w3.org/2000/svg"
   xmlns:sodipodi="http://sodipodi.sourceforge.net/DTD/sodipodi-0.dtd"
   xmlns:inkscape="http://www.inkscape.org/namespaces/inkscape"
   width="31.951897mm"
   height="9.5928192mm"
   viewBox="0 0 31.951897 9.5928192"
   version="1.1"
   id="svg1549"
   inkscape:version="1.0 (4035a4fb49, 2020-05-01)"
   sodipodi:docname="meterv2_1.svg">
  <defs
     id="defs1543" />
  <sodipodi:namedview
     fit-margin-bottom="0"
     fit-margin-right="0"
     fit-margin-left="0"
     fit-margin-top="0"
     id="base"
     pagecolor="#ffffff"
     bordercolor="#666666"
     borderopacity="1.0"
     inkscape:pageopacity="0.0"
     inkscape:pageshadow="2"
     inkscape:zoom="7.9195959"
     inkscape:cx="64.699112"
     inkscape:cy="15.864239"
     inkscape:document-units="mm"
     inkscape:current-layer="layer1"
     inkscape:document-rotation="0"
     showgrid="false"
     inkscape:window-width="1920"
     inkscape:window-height="949"
     inkscape:window-x="0"
     inkscape:window-y="27"
     inkscape:window-maximized="1" />
  <metadata
     id="metadata1546">
    <rdf:RDF>
      <cc:Work
         rdf:about="">
        <dc:format>image/svg+xml</dc:format>
        <dc:type
           rdf:resource="http://purl.org/dc/dcmitype/StillImage" />
        <dc:title></dc:title>
      </cc:Work>
    </rdf:RDF>
  </metadata>
  <g
     transform="translate(-89.857384,-143.37025)"
     inkscape:label="Layer 1"
     inkscape:groupmode="layer"
     id="layer1">
    <g
       transform="matrix(0.26458333,0,0,0.26458333,116.27355,133.63001)"
       id="g1429">
      <g
         id="g1227"
         transform="translate(3.5753792,34.648407)">
        <path
           id="path1179"
           d="m -95.685465,4.2543733 c -3.075886,0 -5.550635,2.4747517 -5.550635,5.5506375 V 30.778851 c 0,3.075886 2.474749,5.553321 5.550635,5.553321 h 20.898725 c 3.075886,0 5.550637,-2.477435 5.550637,-5.553321 V 9.8050108 c 0,-3.0758858 -2.474751,-5.5506375 -5.550637,-5.5506375 z"
           fill="#abb0b4"
           sodipodi:nodetypes="sssssssss"
           style="fill:#dc0e01;fill-opacity:1;stroke-width:1.37358" />
        <path
           d="m -75.127361,14.44528 c -0.104975,-0.419562 -0.627895,-0.56559 -0.93355,-0.25975 l -2.482118,2.482221 c -0.55125,0.550972 -1.444829,0.550972 -1.995976,0 l -1.138865,-1.138896 c -0.551147,-0.551136 -0.551147,-1.444695 0,-1.995924 l 2.452037,-2.452016 c 0.307818,-0.307862 0.15803,-0.835831 -0.265684,-0.935054 -0.580301,-0.135584 -1.193567,-0.1856371 -1.825995,-0.135162 -2.718545,0.2169 -5.220618,2.765986 -5.389815,5.487993 -0.06409,1.032385 0.144514,2.008348 0.550972,2.872876 l -8.677292,7.456748 c -0.390278,0.335323 -0.663149,0.647056 -0.684763,1.161117 -0.02187,0.51406 0.20946,1.184399 0.569993,1.551452 l 1.470524,1.497471 c 0.364025,0.370865 0.866681,0.572472 1.38613,0.555783 0.519499,-0.0169 1.008166,-0.250128 1.347672,-0.643451 l 7.516005,-8.708222 c 0.839185,0.374574 1.778401,0.565569 2.770157,0.503758 2.740384,-0.17101 5.289979,-2.69315 5.489525,-5.431382 0.04718,-0.648674 -0.01092,-1.276837 -0.158957,-1.869562 z"
           fill="#dc0e01"
           id="path1181"
           style="fill:#ffffff;stroke-width:1.03018" />
      </g>
      <g
         transform="matrix(1.0301811,0,0,1.0301811,5.4168418,71.757497)"
         id="g1251">
        <path
           id="path1247"
           d="m -60.940895,-27.999924 c -2.239329,0 -4.041016,1.801687 -4.041016,4.041016 v 15.26953 c 0,2.239329 1.801687,4.0429689 4.041016,4.0429689 h 15.214844 c 2.239329,0 4.041015,-1.8036399 4.041015,-4.0429689 v -15.26953 c 0,-2.239329 -1.801686,-4.041016 -4.041015,-4.041016 z"
           fill="#abb0b4"
           sodipodi:nodetypes="sssssssss"
           style="fill:#ff5c00;fill-opacity:1" />
        <path
           fillRule="evenodd"
           clipRule="evenodd"
           d="m -45.592525,-18.770125 h -1.014139 c -0.130256,0 -0.223296,-0.102344 -0.27912,-0.241904 -0.03322,-0.05126 -0.05089,-0.111035 -0.05089,-0.172125 0,-0.06109 0.01768,-0.120869 0.05089,-0.172124 l 0.753626,-0.688499 c 0.147655,-0.142072 0.265072,-0.312606 0.344993,-0.501301 0.08002,-0.188694 0.120859,-0.391634 0.120208,-0.596574 -1.86e-4,-0.206186 -0.0414,-0.410261 -0.121324,-0.600351 -0.07983,-0.190091 -0.196781,-0.362374 -0.343877,-0.506828 l -1.24674,-1.274652 c -0.144398,-0.14544 -0.316151,-0.260866 -0.505395,-0.339625 -0.189244,-0.07877 -0.392164,-0.119324 -0.597132,-0.119324 -0.204968,0 -0.407889,0.04056 -0.597133,0.119324 -0.189244,0.07876 -0.360996,0.194185 -0.505394,0.339625 l -0.716411,0.688498 c -0.05694,0.03647 -0.123092,0.05586 -0.190732,0.05586 -0.06764,0 -0.133792,-0.01939 -0.190733,-0.05586 -0.0562,-0.02095 -0.105228,-0.05743 -0.141514,-0.10521 -0.03619,-0.04777 -0.05815,-0.104856 -0.06317,-0.164607 v -0.958314 c 1.86e-4,-0.406614 -0.158076,-0.7973 -0.44129,-1.089139 -0.283122,-0.29183 -0.668867,-0.461833 -1.075267,-0.473938 h -1.804981 c -0.415425,-9e-6 -0.813916,0.164374 -1.108566,0.457246 -0.294612,0.292873 -0.461358,0.690424 -0.463815,1.105831 v 1.014139 c 0,0.130256 -0.102344,0.223296 -0.241904,0.27912 -0.05126,0.03324 -0.111035,0.05093 -0.172125,0.05093 -0.06109,0 -0.120869,-0.01769 -0.172124,-0.05093 l -0.688499,-0.753626 c -0.294677,-0.292918 -0.691726,-0.459749 -1.107179,-0.465201 -0.204772,4e-4 -0.407405,0.04177 -0.595951,0.121659 -0.188546,0.07989 -0.3592,0.196697 -0.501924,0.343542 l -1.274652,1.24674 c -0.149692,0.144873 -0.268719,0.318374 -0.350008,0.510177 -0.08129,0.191802 -0.123176,0.397989 -0.123176,0.606306 0,0.208317 0.04189,0.414504 0.123176,0.606306 0.08129,0.191803 0.200316,0.365304 0.350008,0.510177 l 0.688498,0.688499 c 0.03647,0.05693 0.05586,0.12312 0.05586,0.190732 0,0.06761 -0.01939,0.133801 -0.05586,0.190733 -0.02095,0.05618 -0.05743,0.105256 -0.10521,0.141495 -0.04777,0.03624 -0.104856,0.05815 -0.164607,0.06319 h -0.958314 c -0.414551,0 -0.81213,0.164682 -1.105263,0.457814 -0.293133,0.293114 -0.457814,0.690675 -0.457814,1.105263 v 1.758461 c -9e-6,0.415425 0.164374,0.813917 0.457246,1.108575 0.292873,0.294566 0.690424,0.461387 1.105831,0.463806 h 1.014139 c 0.130256,0 0.223296,0.102345 0.27912,0.241905 0.03324,0.05127 0.05093,0.110997 0.05093,0.172124 0,0.06113 -0.01769,0.12086 -0.05093,0.172125 l -0.753626,0.688498 c -0.292918,0.294659 -0.459749,0.691754 -0.465201,1.107179 -3.16e-4,0.206271 0.04068,0.410494 0.12058,0.600668 0.07989,0.190175 0.197078,0.362392 0.344621,0.506512 l 1.24674,1.2653472 c 0.144417,0.145422 0.316188,0.260885 0.505413,0.339597 0.189216,0.078805 0.392156,0.1193707 0.597114,0.1193707 0.204959,0 0.407898,-0.040566 0.597114,-0.1193707 0.189225,-0.078712 0.360996,-0.194175 0.505413,-0.339597 l 0.716411,-0.688498 c 0.05693,-0.036472 0.12312,-0.055824 0.190732,-0.055824 0.06761,0 0.133801,0.019352 0.190733,0.055824 0.05618,0.020934 0.105256,0.057406 0.141495,0.1052286 0.03624,0.04773 0.05815,0.1048563 0.06319,0.1645882 v 1.014139 c 0.01447,0.4048182 0.185513,0.7881442 0.477092,1.0693118 0.291607,0.2811677 0.680888,0.4382197 1.085985,0.4379406 h 1.758461 c 0.415425,0 0.813916,-0.1644022 1.108575,-0.4571999 0.294565,-0.2928908 0.461387,-0.6904518 0.463806,-1.1058767 v -1.014139 c 0,-0.1302564 0.102344,-0.2232966 0.241904,-0.2791208 0.05127,-0.033215 0.110997,-0.050893 0.172125,-0.050893 0.06113,0 0.120859,0.017678 0.172124,0.050893 l 0.707107,0.7164101 c 0.294658,0.2928908 0.691754,0.459712 1.107179,0.4652014 0.204781,-3.722e-4 0.407423,-0.041775 0.595923,-0.1216967 0.188592,-0.079829 0.359228,-0.1966871 0.501952,-0.3435047 l 1.24674,-1.2467401 c 0.145422,-0.144398 0.260885,-0.31615 0.339597,-0.505394 0.0788,-0.189244 0.11937,-0.392165 0.11937,-0.597133 0,-0.204967 -0.04057,-0.407888 -0.11937,-0.597132 -0.07871,-0.189244 -0.194175,-0.360997 -0.339597,-0.505395 l -0.679194,-0.679194 c -0.03322,-0.05126 -0.05089,-0.110997 -0.05089,-0.172125 0,-0.06113 0.01768,-0.120859 0.05089,-0.172124 0.02093,-0.0562 0.05741,-0.105229 0.105228,-0.141514 0.04773,-0.03619 0.104857,-0.05815 0.164589,-0.06317 h 1.014139 c 0.403236,-0.01442 0.785166,-0.184127 1.066147,-0.473761 0.280889,-0.289542 0.438964,-0.676589 0.441104,-1.080012 v -1.804982 c 0,-0.415425 -0.164402,-0.813916 -0.4572,-1.108566 -0.29289,-0.294612 -0.690451,-0.461358 -1.105876,-0.463815 z m -8.671353,6.168571 c 0,0.513861 0.416541,0.930403 0.930402,0.930403 0.513862,0 0.930403,-0.416542 0.930403,-0.930403 0,-0.513861 -0.416541,-0.930403 -0.930403,-0.930403 -0.513861,0 -0.930402,0.416542 -0.930402,0.930403 z m 0.272515,-7.170717 c 0.17445,-0.174478 0.411145,-0.272506 0.657887,-0.272506 0.246743,0 0.483438,0.09803 0.657888,0.272506 0.174451,0.174488 0.272515,0.411136 0.272515,0.657897 v 3.721612 c 0,0.246742 -0.09806,0.483437 -0.272515,0.657888 -0.17445,0.17445 -0.411145,0.272515 -0.657888,0.272515 -0.246742,0 -0.483437,-0.09806 -0.657887,-0.272515 -0.174451,-0.174451 -0.272515,-0.411146 -0.272515,-0.657888 v -3.721612 c 0,-0.246761 0.09806,-0.483409 0.272515,-0.657897 z"
           fill="#ff5c00"
           id="path1249"
           style="fill:#ffffff;fill-rule:evenodd;stroke-width:0.930403" />
      </g>
      <g
         transform="matrix(1.0301811,0,0,1.0301811,-13.805775,71.757497)"
         id="g1257">
        <path
           sodipodi:nodetypes="sssssssss"
           fill="#abb0b4"
           d="m -14.971266,-27.999924 c -2.239329,0 -4.041016,1.801687 -4.041016,4.041016 v 15.2695296 c 0,2.239329 1.801687,4.042969 4.041016,4.042969 H 0.24357784 c 2.23932896,0 4.04101496,-1.80364 4.04101496,-4.042969 V -23.958908 c 0,-2.239329 -1.801686,-4.041016 -4.04101496,-4.041016 z"
           id="path1253"
           style="fill:#fdb400;fill-opacity:1" />
        <path
           d="M 1.3757524,-12.347449 -4.9755293,-22.88044 c -0.2567838,-0.401771 -0.6106173,-0.73241 -1.0288745,-0.961438 -0.4182571,-0.229035 -0.8874404,-0.349088 -1.3642421,-0.349088 -0.4768023,0 -0.9459857,0.120053 -1.3642425,0.349088 -0.418216,0.229028 -0.7720578,0.559667 -1.0288748,0.961438 l -6.3512808,10.532991 c -0.224366,0.374039 -0.346307,0.800494 -0.353577,1.236554 -0.0073,0.436143 0.100403,0.866407 0.312174,1.2476494 0.244842,0.4291882 0.599239,0.7856712 1.026969,1.0330151 0.42773,0.2472611 0.913467,0.3766053 1.407551,0.3747008 h 12.7025628 c 0.4908787,0.0053 0.97438763,-0.1190762 1.40183637,-0.3603752 C 0.81192088,-9.0572868 1.1680729,-9.4070623 1.4171558,-9.8301226 1.6351861,-10.215339 1.74623,-10.651814 1.738943,-11.094416 c -0.00729,-0.44252 -0.1326565,-0.875102 -0.3631906,-1.253033 z m -8.7443983,0.579648 c -0.1637918,0 -0.3238582,-0.04853 -0.4600753,-0.13953 -0.1361344,-0.09101 -0.2422928,-0.220348 -0.3049775,-0.371636 -0.062684,-0.151288 -0.07908,-0.317813 -0.047117,-0.478458 0.031963,-0.160562 0.1107955,-0.308124 0.2266422,-0.423971 0.1157638,-0.115764 0.2633255,-0.194679 0.4239716,-0.22656 0.1606452,-0.03197 0.3271696,-0.01557 0.4784577,0.04711 0.151288,0.0626 0.2806322,0.16876 0.3716369,0.304977 0.091005,0.136134 0.1395295,0.296283 0.1395295,0.459992 0,0.219687 -0.087278,0.430264 -0.2425412,0.585527 -0.1552627,0.155345 -0.3659232,0.242541 -0.5855269,0.242541 z m 0.8280681,-3.312272 c 0,0.219686 -0.087278,0.430264 -0.2425412,0.585526 -0.1552627,0.155346 -0.3659232,0.242541 -0.5855269,0.242541 -0.2196044,0 -0.4302649,-0.0872 -0.5855276,-0.242541 -0.1552628,-0.155262 -0.2425412,-0.36584 -0.2425412,-0.585526 v -3.312239 c 0,-0.219621 0.087278,-0.430239 0.2425412,-0.585536 0.1552627,-0.155286 0.3659232,-0.242532 0.5855276,-0.242532 0.2196037,0 0.4302642,0.08725 0.5855269,0.242532 0.1552628,0.155297 0.2425412,0.365915 0.2425412,0.585536 z"
           fill="#fdb400"
           id="path1255"
           style="fill:#ffffff;fill-rule:nonzero;stroke-width:0.828068" />
      </g>
      <g
         transform="matrix(1.0301811,0,0,1.0301811,-25.037281,71.757497)"
         id="g1263">
        <path
           sodipodi:nodetypes="sssssssss"
           fill="#abb0b4"
           d="m 23.241368,-27.999924 c -2.239329,0 -4.041016,1.801687 -4.041016,4.041016 v 15.2695297 c 0,2.239329 1.801687,4.042969 4.041016,4.042969 h 15.214844 c 2.239329,0 4.041015,-1.80364 4.041015,-4.042969 V -23.958908 c 0,-2.239329 -1.801686,-4.041016 -4.041015,-4.041016 z"
           id="path1259"
           style="fill:#58cc00;fill-opacity:1" />
        <path
           d="m 30.84879,-24.353884 c -1.588313,0 -3.140979,0.470993 -4.461621,1.353415 -1.320642,0.882431 -2.349954,2.136651 -2.957781,3.604078 -0.607829,1.467395 -0.766861,3.082129 -0.456996,4.639926 0.309864,1.557797 1.074717,2.988708 2.197836,4.111883 1.123111,1.1230941 2.554046,1.8879395 4.111851,2.1978442 1.557797,0.3098248 3.172531,0.1508168 4.639902,-0.4570277 1.467452,-0.6078444 2.721687,-1.6371405 3.604102,-2.9577905 0.882413,-1.32065 1.353414,-2.873306 1.353414,-4.46162 0,-1.054593 -0.207754,-2.09889 -0.611297,-3.073215 -0.403543,-0.974335 -0.995085,-1.859632 -1.740816,-2.605355 -0.745731,-0.745715 -1.631037,-1.337258 -2.605403,-1.740841 -0.974286,-0.403574 -2.018599,-0.611297 -3.073191,-0.611297 z m 3.453204,6.111368 -3.670033,4.818426 c -0.07485,0.09717 -0.170894,0.175952 -0.280834,0.23024 -0.110021,0.05429 -0.230963,0.08263 -0.353592,0.08296 -0.121987,6.43e-4 -0.242527,-0.0265 -0.352468,-0.07934 -0.10986,-0.05292 -0.206309,-0.130098 -0.281958,-0.225824 l -1.959493,-2.49755 c -0.06485,-0.08328 -0.112671,-0.178603 -0.140706,-0.280352 -0.02804,-0.10183 -0.03575,-0.208156 -0.0227,-0.312877 0.01305,-0.1048 0.04661,-0.205987 0.09876,-0.297778 0.05216,-0.09179 0.121875,-0.172419 0.205186,-0.237307 0.168267,-0.130982 0.381667,-0.189766 0.593268,-0.163425 0.104769,0.01309 0.205948,0.04666 0.297755,0.09878 0.09181,0.05212 0.172435,0.121907 0.237291,0.205185 l 1.309006,1.670387 3.035607,-4.015354 c 0.06432,-0.08437 0.144633,-0.155242 0.236343,-0.208566 0.09179,-0.05333 0.193059,-0.08807 0.298261,-0.102239 0.105123,-0.01417 0.212011,-0.0075 0.314563,0.01966 0.102552,0.02714 0.19876,0.07423 0.283162,0.138562 0.0844,0.06433 0.155234,0.144649 0.208558,0.236367 0.05332,0.09173 0.0881,0.193051 0.102231,0.298196 0.01421,0.105147 0.0075,0.212052 -0.01968,0.31462 -0.02714,0.102568 -0.0742,0.198776 -0.13853,0.283146 z"
           fill="#58cc00"
           id="path1261"
           style="fill:#ffffff;stroke-width:0.803071" />
      </g>
    </g>
  </g>
</svg>
