<?xml version="1.0" encoding="UTF-8" standalone="no"?>
<svg
   xmlns:dc="http://purl.org/dc/elements/1.1/"
   xmlns:cc="http://creativecommons.org/ns#"
   xmlns:rdf="http://www.w3.org/1999/02/22-rdf-syntax-ns#"
   xmlns:svg="http://www.w3.org/2000/svg"
   xmlns="http://www.w3.org/2000/svg"
   id="svg1701"
   version="1.1"
   viewBox="0 0 8.4666653 8.4872503"
   height="8.4872503mm"
   width="8.4666653mm">
  <defs
     id="defs1695" />
  <metadata
     id="metadata1698">
    <rdf:RDF>
      <cc:Work
         rdf:about="">
        <dc:format>image/svg+xml</dc:format>
        <dc:type
           rdf:resource="http://purl.org/dc/dcmitype/StillImage" />
        <dc:title></dc:title>
      </cc:Work>
    </rdf:RDF>
  </metadata>
  <g
     transform="translate(-100.84405,-109.14923)"
     id="layer1">
    <g
       id="g1585"
       transform="translate(60.333999,-2.1970379)">
      <path
         style="fill:#abb0b4;fill-opacity:1;stroke-width:0.363426"
         fill="#abb0b4"
         d="m 41.978654,111.34627 c -0.813828,0 -1.468605,0.65477 -1.468605,1.4686 v 5.54933 c 0,0.81383 0.654777,1.46932 1.468605,1.46932 h 5.529454 c 0.813828,0 1.468606,-0.65549 1.468606,-1.46932 v -5.54933 c 0,-0.81383 -0.654778,-1.4686 -1.468606,-1.4686 z"
         id="path1581" />
      <path
         fill="#abb0b4"
         d="m 44.760429,112.79438 c 0.53105,0 0.943399,0.1288 1.236477,0.38681 0.293082,0.25551 0.43926,0.61792 0.43926,1.08634 0,0.21292 -0.04774,0.4141 -0.142925,0.60448 -0.09519,0.18787 -0.261603,0.39761 -0.499575,0.62807 l -0.304203,0.28912 c -0.190375,0.18287 -0.299594,0.39701 -0.327148,0.6425 l -0.01508,0.22881 h -0.961776 c 0,-0.35069 0.04268,-0.62995 0.127844,-0.83788 0.08516,-0.20791 0.24069,-0.41194 0.466137,-0.61233 0.227952,-0.20289 0.379189,-0.36712 0.454339,-0.49236 0.07515,-0.12775 0.11276,-0.26161 0.11276,-0.40189 0,-0.42334 -0.195341,-0.63463 -0.586112,-0.63463 -0.185369,0 -0.334403,0.0573 -0.447126,0.17242 -0.110223,0.11266 -0.168071,0.26968 -0.173082,0.47007 h -1.089621 c 0.005,-0.47844 0.159105,-0.85317 0.462203,-1.1237 0.305607,-0.27054 0.721585,-0.40583 1.247628,-0.40583 z m -0.0754,4.4411 c 0.177854,0 0.323256,0.0557 0.43598,0.16586 0.115223,0.1077 0.173082,0.2452 0.173082,0.41304 0,0.16532 -0.05642,0.30204 -0.169146,0.40975 -0.110223,0.10772 -0.257054,0.16128 -0.439916,0.16128 -0.182863,0 -0.330468,-0.0535 -0.44319,-0.16128 -0.110223,-0.10771 -0.165215,-0.24442 -0.165215,-0.40975 0,-0.16784 0.05642,-0.30532 0.169148,-0.41304 0.115221,-0.11025 0.261406,-0.16586 0.439257,-0.16586 z"
         id="path1577"
         style="fill:#ffffff;fill-opacity:1;stroke-width:0.335671" />
    </g>
  </g>
</svg>
