    <svg viewBox="0 0 57 30" fill="none" xmlns="http://www.w3.org/2000/svg">
      <rect style="fill:#d84237;fill-opacity:1;stroke:none;" x="2.5331495" y="12.047314" width="12.844224" height="16.193937" color="#d84237" />
      <rect style="fill:#e4944d;fill-opacity:1;stroke:none;" x="15.377373" y="12.047314" width="12.844224" height="16.193937" color="#e4944d" />
      <rect style="fill:#e6c83b;fill-opacity:1;stroke:none;" x="28.221598" y="12.047314" width="12.844224" height="16.193937" color="#e6c83b" />
      <rect style="fill:#289554;fill-opacity:1;stroke:none;" x="41.065819" y="12.047314" width="12.844224" height="16.193937" color="#289554" />

      <g>
        <rect style="fill:#000000;fill-opacity:0.3;stroke:none;" x="39.748852" y="10.817696" width="16.536463" height="19.182287" />
        <rect style="fill:#289554;fill-opacity:1;stroke:none;" y="10.288536" x="39.219692" height="19.182287" width="16.536463" color="#289554" />
        <g>
          <path style="fill:#000000;fill-opacity:1;stroke:none;" d="m 51.881844,18.791783 -3.02592,-0.0053 0.495459,-0.842044 c 0.156301,-0.265583 0.239122,-0.56874 0.239713,-0.876915 l 8.07e-4,-0.462065 c 4.43e-4,-0.224269 -0.08656,-0.435112 -0.244778,-0.593921 -0.158219,-0.158808 -0.368914,-0.246451 -0.593085,-0.246844 -5.9e-4,0 -0.0011,0 -0.0015,0 -0.22363,0 -0.433932,0.08685 -0.592446,0.244779 -0.158808,0.158218 -0.24645,0.368815 -0.246843,0.593036 -4.92e-4,0.262041 -0.127087,0.510853 -0.338668,0.66553 l -1.531723,1.118988 c -0.304436,0.222451 -0.515624,0.539478 -0.60484,0.903571 h -1.391664 c -0.09266,0 -0.167858,0.0752 -0.167858,0.167859 v 3.69322 c 0,0.09266 0.0752,0.167859 0.167858,0.167859 h 1.407883 c 0.150989,0.397783 0.530379,0.666022 0.96436,0.666711 l 4.782405,0.0086 c 5.9e-4,0 0.0012,0 0.0018,0 0.487443,0 0.88562,-0.391587 0.895702,-0.877308 l 0.674531,-3.39577 c 0.0021,-0.01067 0.0032,-0.02159 0.0032,-0.03241 8.89e-4,-0.493886 -0.400292,-0.896538 -0.894325,-0.897472 z m -0.115823,4.275683 c -0.0021,0.01067 -0.0032,0.02159 -0.0032,0.03241 -5.9e-4,0.308617 -0.251714,0.559198 -0.560183,0.559198 -3.44e-4,0 -6.88e-4,0 -9.69e-4,0 l -4.782503,-0.0086 c -0.32355,-4.88e-4 -0.602412,-0.221659 -0.678004,-0.537948 -0.01815,-0.07545 -0.08553,-0.128758 -0.163284,-0.128758 h -1.36357 v -3.357654 h 1.361553 c 0.08302,0 0.153546,-0.06049 0.16594,-0.142431 0.0512,-0.334585 0.228499,-0.627955 0.499246,-0.825715 l 1.531773,-1.119137 c 0.29755,-0.217383 0.475687,-0.567313 0.476327,-0.935883 2.46e-4,-0.134463 0.05287,-0.260861 0.148136,-0.355831 0.09502,-0.09477 0.221171,-0.146907 0.355389,-0.146907 3.44e-4,0 6.88e-4,0 9.69e-4,0 0.134562,2.46e-4 0.260959,0.05287 0.355881,0.148136 0.09502,0.09536 0.147152,0.221762 0.146906,0.356324 l -8.07e-4,0.462064 c -4.43e-4,0.248517 -0.06733,0.493049 -0.193383,0.707237 L 48.4182,18.868614 c -0.03055,0.05188 -0.03098,0.116168 -0.0012,0.168398 0.0298,0.05228 0.08528,0.08459 0.145481,0.08469 l 3.318799,0.0058 c 0.303748,5.9e-4 0.551379,0.243991 0.559003,0.545821 z" />
          <path style="fill:#000000;fill-opacity:1;stroke:none;" d="m 52.44001,20.129925 h -1.007246 c -0.09266,0 -0.167858,0.0752 -0.167858,0.167858 0,0.09266 0.0752,0.167859 0.167858,0.167859 h 1.007246 c 0.09276,0 0.167859,-0.0752 0.167859,-0.167859 0,-0.09266 -0.07515,-0.167858 -0.167859,-0.167858 z" />
          <path style="fill:#000000;fill-opacity:1;stroke:none;" d="m 52.104295,21.30503 h -0.839389 c -0.09266,0 -0.167858,0.0752 -0.167858,0.167858 0,0.09266 0.0752,0.167858 0.167858,0.167858 h 0.839389 c 0.09276,0 0.167857,-0.0752 0.167857,-0.167858 0,-0.09261 -0.0752,-0.167858 -0.167857,-0.167858 z" />
          <path style="fill:#000000;fill-opacity:1;stroke:none;" d="m 51.936387,22.480184 h -1.175105 c -0.09266,0 -0.167857,0.0752 -0.167857,0.167858 0,0.09266 0.0752,0.167858 0.167857,0.167858 h 1.175105 c 0.09276,0 0.167858,-0.0752 0.167858,-0.167858 0,-0.09266 -0.07515,-0.167858 -0.167858,-0.167858 z" />
          <path style="fill:#000000;fill-opacity:1;stroke:none;" d="m 44.046321,18.95482 h -1.678777 c -0.09266,0 -0.167858,0.0752 -0.167858,0.167858 v 4.53261 c 0,0.09266 0.0752,0.167859 0.167858,0.167859 h 1.678727 c 0.09276,0 0.167859,-0.0752 0.167859,-0.167859 v -4.53261 c 4.9e-5,-0.09266 -0.07515,-0.167858 -0.167809,-0.167858 z m -0.167907,4.532611 h -1.342963 v -4.196894 h 1.343012 v 4.196894 z" />
        </g>
      </g>

      <text style="font-weight:normal;font-size:8px;font-family:sans-serif;fill:#000000;fill-opacity:1;stroke:none;" x="6.2303295" y="8.7520819" ><tspan style="stroke-width:0.3;" x="6.2303295" y="8.7520819" >1</tspan></text>
      <text style="font-weight:normal;font-size:8px;font-family:sans-serif;fill:#000000;fill-opacity:1;stroke:none;" y="8.8070288" x="19.259741" ><tspan style="stroke-width:0.3;" y="8.8070288" x="19.259741" >2</tspan></text>
      <text style="font-weight:normal;font-size:8px;font-family:sans-serif;fill:#000000;fill-opacity:1;stroke:none;" x="32.008308" y="8.7480116" ><tspan style="stroke-width:0.3;" x="32.008308" y="8.7480116" >3</tspan></text>
      <text style="font-weight:bold;font-size:8px;font-family:sans-serif;fill:#000000;fill-opacity:1;stroke:none;" y="8.7520819" x="44.866787" ><tspan style="stroke-width:0.3;" y="8.7520819" x="44.866787" >4</tspan></text>
    </svg>
