<?xml version="1.0" encoding="UTF-8" standalone="no"?>
<svg
   xmlns:dc="http://purl.org/dc/elements/1.1/"
   xmlns:cc="http://creativecommons.org/ns#"
   xmlns:rdf="http://www.w3.org/1999/02/22-rdf-syntax-ns#"
   xmlns:svg="http://www.w3.org/2000/svg"
   xmlns="http://www.w3.org/2000/svg"
   id="svg2330"
   version="1.1"
   viewBox="0 0 8.4666653 8.4872503"
   height="8.4872503mm"
   width="8.4666653mm">
  <defs
     id="defs2324" />
  <metadata
     id="metadata2327">
    <rdf:RDF>
      <cc:Work
         rdf:about="">
        <dc:format>image/svg+xml</dc:format>
        <dc:type
           rdf:resource="http://purl.org/dc/dcmitype/StillImage" />
        <dc:title></dc:title>
      </cc:Work>
    </rdf:RDF>
  </metadata>
  <g
     transform="translate(-95.552382,-115.19685)"
     id="layer1">
    <g
       id="g1589"
       transform="translate(26.927874,-10.205809)">
      <path
         id="path1179"
         d="m 70.093113,125.40266 c -0.813828,0 -1.468605,0.65477 -1.468605,1.4686 v 5.54933 c 0,0.81383 0.654777,1.46932 1.468605,1.46932 h 5.529454 c 0.813828,0 1.468606,-0.65549 1.468606,-1.46932 v -5.54933 c 0,-0.81383 -0.654778,-1.4686 -1.468606,-1.4686 z"
         fill="#abb0b4"
         style="fill:#dc0e01;fill-opacity:1;stroke-width:0.363426" />
      <path
         d="m 75.532445,128.099 c -0.02777,-0.11101 -0.166131,-0.14965 -0.247002,-0.0687 l -0.656727,0.65676 c -0.145852,0.14578 -0.382278,0.14578 -0.528102,0 l -0.301325,-0.30133 c -0.145824,-0.14583 -0.145824,-0.38225 0,-0.52809 l 0.648768,-0.64876 c 0.08144,-0.0815 0.04181,-0.22115 -0.0703,-0.2474 -0.153538,-0.0359 -0.315798,-0.0491 -0.483128,-0.0358 -0.719282,0.0574 -1.381289,0.73184 -1.426055,1.45204 -0.01696,0.27315 0.03824,0.53137 0.145778,0.76011 l -2.295867,1.97293 c -0.103261,0.0887 -0.175458,0.1712 -0.181177,0.30721 -0.0058,0.13602 0.05542,0.31338 0.150811,0.41049 l 0.389076,0.39621 c 0.09632,0.0981 0.229309,0.15146 0.366747,0.14705 0.13745,-0.004 0.266744,-0.0662 0.356571,-0.17025 l 1.98861,-2.30405 c 0.222034,0.0991 0.470535,0.14964 0.732937,0.13329 0.72506,-0.0453 1.39964,-0.71256 1.452437,-1.43705 0.01248,-0.17163 -0.0029,-0.33783 -0.04206,-0.49466 z"
         fill="#dc0e01"
         id="path1181"
         style="fill:#ffffff;stroke-width:0.272568" />
    </g>
  </g>
</svg>
