<?xml version="1.0" encoding="UTF-8" standalone="no"?>
<svg
   xmlns:dc="http://purl.org/dc/elements/1.1/"
   xmlns:cc="http://creativecommons.org/ns#"
   xmlns:rdf="http://www.w3.org/1999/02/22-rdf-syntax-ns#"
   xmlns:svg="http://www.w3.org/2000/svg"
   xmlns="http://www.w3.org/2000/svg"
   xmlns:sodipodi="http://sodipodi.sourceforge.net/DTD/sodipodi-0.dtd"
   xmlns:inkscape="http://www.inkscape.org/namespaces/inkscape"
   sodipodi:docname="meterv3_2.svg"
   inkscape:version="1.0 (4035a4fb49, 2020-05-01)"
   id="svg2947"
   version="1.1"
   viewBox="0 0 8.4666662 8.4872513"
   height="8.4872513mm"
   width="8.4666662mm">
  <defs
     id="defs2941" />
  <sodipodi:namedview
     fit-margin-bottom="0"
     fit-margin-right="0"
     fit-margin-left="0"
     fit-margin-top="0"
     inkscape:window-maximized="1"
     inkscape:window-y="27"
     inkscape:window-x="0"
     inkscape:window-height="949"
     inkscape:window-width="1920"
     showgrid="false"
     inkscape:document-rotation="0"
     inkscape:current-layer="layer1"
     inkscape:document-units="mm"
     inkscape:cy="124.61035"
     inkscape:cx="181.71428"
     inkscape:zoom="0.35"
     inkscape:pageshadow="2"
     inkscape:pageopacity="0.0"
     borderopacity="1.0"
     bordercolor="#666666"
     pagecolor="#ffffff"
     id="base" />
  <metadata
     id="metadata2944">
    <rdf:RDF>
      <cc:Work
         rdf:about="">
        <dc:format>image/svg+xml</dc:format>
        <dc:type
           rdf:resource="http://purl.org/dc/dcmitype/StillImage" />
        <dc:title></dc:title>
      </cc:Work>
    </rdf:RDF>
  </metadata>
  <g
     transform="translate(-57.754762,-115.19685)"
     id="layer1"
     inkscape:groupmode="layer"
     inkscape:label="Layer 1">
    <g
       id="g1239"
       transform="matrix(0.26458333,0,0,0.26458333,75.760965,114.07121)">
      <path
         id="path1185"
         d="m -62.504303,4.2543725 c -3.075885,0 -5.550637,2.4747519 -5.550637,5.5506377 V 30.778852 c 0,3.075885 2.474752,5.55332 5.550637,5.55332 h 20.898727 c 3.075885,0 5.550636,-2.477435 5.550636,-5.55332 V 9.8050102 c 0,-3.0758858 -2.474751,-5.5506377 -5.550636,-5.5506377 z"
         fill="#abb0b4"
         sodipodi:nodetypes="sssssssss"
         style="fill:#ff5c00;fill-opacity:1;stroke-width:1.37357" />
      <path
         fillRule="evenodd"
         clipRule="evenodd"
         d="m -44.080359,17.772461 h -1.044747 c -0.134187,0 -0.230035,-0.105433 -0.287544,-0.249205 -0.03422,-0.05281 -0.05243,-0.114386 -0.05243,-0.17732 0,-0.06293 0.01821,-0.124517 0.05243,-0.177319 l 0.776371,-0.709278 c 0.152112,-0.14636 0.273072,-0.322041 0.355405,-0.516431 0.08243,-0.194389 0.124507,-0.403454 0.123836,-0.614579 -1.91e-4,-0.212409 -0.04265,-0.422644 -0.124985,-0.618471 -0.08224,-0.195828 -0.20272,-0.373311 -0.354256,-0.522124 l -1.284368,-1.313123 c -0.148756,-0.14983 -0.325693,-0.268739 -0.520648,-0.349875 -0.194956,-0.08115 -0.404,-0.122926 -0.615154,-0.122926 -0.211154,0 -0.4202,0.04178 -0.615155,0.122926 -0.194956,0.08114 -0.371892,0.200045 -0.520648,0.349875 l -0.738033,0.709277 c -0.05866,0.03757 -0.126807,0.05755 -0.196488,0.05755 -0.06968,0 -0.13783,-0.01998 -0.19649,-0.05755 -0.0579,-0.02158 -0.108404,-0.05916 -0.145785,-0.108385 -0.03728,-0.04921 -0.05991,-0.108021 -0.06508,-0.169575 v -0.987237 c 1.92e-4,-0.418886 -0.162846,-0.821363 -0.454608,-1.12201 -0.291667,-0.300638 -0.689054,-0.475772 -1.10772,-0.488242 h -1.859457 c -0.427963,-10e-6 -0.838481,0.169335 -1.142024,0.471046 -0.303504,0.301712 -0.475282,0.711262 -0.477813,1.139206 v 1.044747 c 0,0.134187 -0.105433,0.230035 -0.249205,0.287544 -0.05281,0.03424 -0.114386,0.05247 -0.17732,0.05247 -0.06293,0 -0.124517,-0.01822 -0.177319,-0.05247 l -0.709279,-0.776371 c -0.30357,-0.301759 -0.712603,-0.473625 -1.140595,-0.479242 -0.210952,4.13e-4 -0.419701,0.04303 -0.613937,0.125331 -0.194237,0.0823 -0.370041,0.202634 -0.517073,0.353911 l -1.313122,1.284368 c -0.15421,0.149246 -0.276829,0.327983 -0.360572,0.525575 -0.08374,0.197591 -0.126893,0.410001 -0.126893,0.624605 0,0.214604 0.04315,0.427014 0.126893,0.624605 0.08374,0.197592 0.206362,0.376329 0.360572,0.525575 l 0.709278,0.709278 c 0.03757,0.05865 0.05755,0.126836 0.05755,0.196489 0,0.06965 -0.01998,0.137839 -0.05755,0.196489 -0.02158,0.05788 -0.05916,0.108433 -0.108386,0.145766 -0.04921,0.03733 -0.108021,0.05991 -0.169575,0.0651 h -0.987237 c -0.427062,0 -0.836641,0.169652 -1.138621,0.471631 -0.30198,0.301961 -0.471631,0.711521 -0.471631,1.138621 v 1.811534 c -9e-6,0.427963 0.169335,0.838481 0.471046,1.142033 0.301712,0.303456 0.711262,0.475312 1.139206,0.477804 h 1.044747 c 0.134187,0 0.230035,0.105434 0.287544,0.249206 0.03424,0.05282 0.05247,0.114347 0.05247,0.177319 0,0.06297 -0.01822,0.124507 -0.05247,0.17732 l -0.776371,0.709277 c -0.301759,0.303552 -0.473625,0.712632 -0.479241,1.140595 -3.26e-4,0.212497 0.04191,0.422883 0.124219,0.618797 0.0823,0.195915 0.203026,0.373329 0.355022,0.521799 l 1.284368,1.303537 c 0.148776,0.149811 0.325731,0.268759 0.520667,0.349846 0.194927,0.08118 0.403991,0.122974 0.615135,0.122974 0.211145,0 0.420209,-0.04179 0.615136,-0.122974 0.194936,-0.08109 0.371891,-0.200035 0.520667,-0.349846 l 0.738033,-0.709278 c 0.05865,-0.03757 0.126836,-0.05751 0.196488,-0.05751 0.06965,0 0.13784,0.01994 0.19649,0.05751 0.05787,0.02157 0.108433,0.05914 0.145765,0.108405 0.03733,0.04917 0.05991,0.108021 0.0651,0.169555 v 1.044747 c 0.01491,0.417036 0.191112,0.811931 0.491491,1.101585 0.300408,0.289654 0.701438,0.451446 1.118761,0.451158 h 1.811533 c 0.427963,0 0.838481,-0.169364 1.142033,-0.470999 0.303456,-0.30173 0.475312,-0.71129 0.477804,-1.139253 v -1.04475 c 0,-0.134187 0.105433,-0.230036 0.249205,-0.287545 0.05282,-0.03422 0.114347,-0.05243 0.17732,-0.05243 0.06298,0 0.124507,0.01821 0.177319,0.05243 l 0.728448,0.738032 c 0.303552,0.301731 0.712632,0.473587 1.140595,0.479242 0.210962,-3.83e-4 0.41972,-0.04304 0.613909,-0.12537 0.194284,-0.08224 0.37007,-0.202623 0.517101,-0.353872 l 1.284368,-1.284368 c 0.149811,-0.148756 0.268759,-0.325691 0.349847,-0.520647 0.08118,-0.194956 0.122972,-0.404001 0.122972,-0.615155 0,-0.211153 -0.04179,-0.420199 -0.122972,-0.615154 -0.08109,-0.194956 -0.200036,-0.371893 -0.349847,-0.520649 l -0.699692,-0.699692 c -0.03422,-0.05281 -0.05243,-0.114347 -0.05243,-0.17732 0,-0.06298 0.01821,-0.124507 0.05243,-0.177319 0.02156,-0.0579 0.05914,-0.108405 0.108403,-0.145785 0.04917,-0.03728 0.108022,-0.05991 0.169557,-0.06508 h 1.044747 c 0.415406,-0.01486 0.808863,-0.189684 1.098324,-0.48806 0.289367,-0.29828 0.452213,-0.697009 0.454417,-1.112607 v -1.859459 c 0,-0.427963 -0.169364,-0.838481 -0.470999,-1.142024 -0.301729,-0.303503 -0.711289,-0.475282 -1.139252,-0.477813 z m -8.933064,6.354745 c 0,0.52937 0.429113,0.958484 0.958482,0.958484 0.529371,0 0.958484,-0.429114 0.958484,-0.958484 0,-0.52937 -0.429113,-0.958483 -0.958484,-0.958483 -0.529369,0 -0.958482,0.429113 -0.958482,0.958483 z m 0.28074,-7.387137 c 0.179715,-0.179744 0.423553,-0.28073 0.677742,-0.28073 0.25419,0 0.498029,0.100988 0.677744,0.28073 0.179716,0.179754 0.28074,0.423545 0.28074,0.677753 v 3.833935 c 0,0.254188 -0.10102,0.498027 -0.28074,0.677743 -0.179715,0.179715 -0.423554,0.28074 -0.677744,0.28074 -0.254189,0 -0.498027,-0.101019 -0.677742,-0.28074 -0.179716,-0.179716 -0.28074,-0.423555 -0.28074,-0.677743 v -3.833935 c 0,-0.254208 0.101019,-0.497999 0.28074,-0.677753 z"
         fill="#ff5c00"
         id="path1187"
         style="fill:#ffffff;fill-rule:evenodd;stroke-width:0.958484" />
    </g>
  </g>
</svg>
