    <svg viewBox="0 0 57 30" fill="none" xmlns="http://www.w3.org/2000/svg">
      <rect style="fill:#d84237;fill-opacity:1;stroke:none;" x="2.5331495" y="12.047314" width="12.844224" height="16.193937" color="#d84237" />
      <rect style="fill:#e4944d;fill-opacity:1;stroke:none;" x="15.377373" y="12.047314" width="12.844224" height="16.193937" color="#e4944d" />
      <rect style="fill:#e6c83b;fill-opacity:1;stroke:none;" x="28.221598" y="12.047314" width="12.844224" height="16.193937" color="#e6c83b" />
      <rect style="fill:#289554;fill-opacity:1;stroke:none;" x="41.065819" y="12.047314" width="12.844224" height="16.193937" color="#289554" />

      <g>
        <rect style="fill:#000000;fill-opacity:0.3;stroke:none;" y="10.817696" x="1.2161906" height="19.182287" width="16.536463" />
        <rect style="fill:#d84237;fill-opacity:1;stroke:none;" x="0.68702346" y="10.288536" width="16.536463" height="19.182287" color="#d84237" />
        <g>
          <path style="fill:#000000;fill-opacity:1;stroke:none;" d="m 10.530128,18.248533 c -0.09569,0 -0.173362,0.07747 -0.173362,0.173296 0,0.09576 0.07767,0.173357 0.173362,0.173357 0.09589,0 0.173364,-0.0776 0.173364,-0.173357 0,-0.09582 -0.07747,-0.173296 -0.173364,-0.173296 z m 0,0" />
          <path style="fill:#000000;fill-opacity:1;stroke:none;" d="m 7.3802217,21.398373 c -0.09589,0 -0.1733627,0.07767 -0.1733627,0.173363 0,0.09589 0.077473,0.173362 0.1733627,0.173362 0.095689,0 0.1733626,-0.07747 0.1733626,-0.173362 0,-0.09569 -0.077674,-0.173363 -0.1733626,-0.173363 z m 0,0" />
          <path style="fill:#000000;fill-opacity:1;stroke:none;" d="m 13.177695,16.625361 c -0.05851,-0.01359 -0.12,0.0041 -0.162256,0.04675 l -0.718711,0.724395 H 11.952171 L 11.572875,17.00353 v -0.349367 l 0.708417,-0.718977 c 0.04191,-0.04253 0.05898,-0.10368 0.0451,-0.161851 -0.0138,-0.0581 -0.05661,-0.104967 -0.113226,-0.124063 -0.177965,-0.06 -0.364195,-0.0904 -0.553605,-0.0904 -0.564646,0 -1.077624,0.263296 -1.40742,0.722367 -0.3086661,0.429748 -0.4038093,0.956406 -0.2674919,1.46044 L 8.7076647,19.018665 6.5801863,16.886311 v -0.418504 c 0,-0.06088 -0.031973,-0.117361 -0.084171,-0.148644 L 5.2702226,15.583591 c -0.068262,-0.04098 -0.1555532,-0.03022 -0.2117618,0.02605 L 4.5681736,16.09986 c -0.056209,0.05627 -0.066975,0.143567 -0.026052,0.211828 l 0.7354334,1.225793 c 0.031305,0.05221 0.087698,0.08411 0.1485767,0.08417 l 0.4183699,1.4e-4 2.1276847,2.132354 -1.2721113,1.272111 c -0.5040391,-0.136251 -1.0309647,-0.04098 -1.4609141,0.267898 -0.4588027,0.329591 -0.7218922,0.842429 -0.7218922,1.407074 0,0.189344 0.030429,0.375641 0.090406,0.553539 0.019153,0.05695 0.066501,0.09996 0.1250111,0.113499 0.058577,0.01359 0.1199962,-0.0041 0.1623238,-0.04675 l 0.7186382,-0.724327 h 0.3464525 l 0.3947373,0.394736 v 0.346453 l -0.7243277,0.718638 c -0.042683,0.04233 -0.060338,0.103747 -0.04675,0.162324 0.013541,0.05851 0.056543,0.105848 0.1134984,0.125011 0.1778987,0.06 0.364195,0.0904 0.5535393,0.0904 0.5646449,0 1.0774165,-0.263157 1.4070739,-0.72196 0.3088722,-0.429948 0.4041487,-0.956807 0.2678983,-1.460847 L 8.9474566,21.230262 9.181492,21.48448 9.0740894,21.591816 c -0.067712,0.06772 -0.067712,0.177492 0,0.245213 0.067721,0.06765 0.1774253,0.06765 0.2452134,0 l 0.097243,-0.09724 2.1958742,2.385218 c 0.0015,0.0015 0.0031,0.0036 0.0052,0.0052 0.406317,0.406316 1.064617,0.406456 1.471139,-6.7e-5 0.405371,-0.405575 0.405371,-1.065503 0,-1.471073 -0.0015,-0.0015 -0.0036,-0.0036 -0.0054,-0.0052 l -2.388942,-2.191673 0.09616,-0.09616 c 0.06772,-0.06766 0.06772,-0.177425 0,-0.245146 -0.06772,-0.06772 -0.177426,-0.06772 -0.245214,0 l -0.106727,0.106722 -0.254697,-0.233767 1.02663,-1.02663 c 0.145936,0.03903 0.296546,0.05878 0.449119,0.05878 0.955927,0 1.733549,-0.777694 1.733549,-1.733555 0,-0.189412 -0.03043,-0.37564 -0.0904,-0.553607 -0.01915,-0.05695 -0.0665,-0.09996 -0.125006,-0.113497 z M 6.039103,17.325989 C 6.006614,17.293399 5.962516,17.276819 5.9164655,17.276819 L 5.5243697,17.27668 4.9090662,16.249375 5.2079136,15.950528 6.2334622,16.565965 v 0.392097 c 0,0.04593 0.018227,0.08993 0.050664,0.122436 l 2.178399,2.183342 -0.2452079,0.245147 z m 4.409697,3.381641 2.397065,2.199061 c 0.267765,0.270607 0.266952,0.708753 -0.0025,0.97834 -0.270066,0.270067 -0.707265,0.27088 -0.978412,0.0025 L 9.6618608,21.494563 Z M 10.193088,20.472982 9.4268446,21.239097 9.1928037,20.984879 9.938396,20.239215 Z m 1.46647,-1.793687 c -0.151624,0 -0.300742,-0.02431 -0.443089,-0.07226 -0.06237,-0.0209 -0.131307,-0.0046 -0.177898,0.0417 -0.869115,0.869115 -2.7418299,2.741763 -3.4314193,3.431419 -0.046596,0.0466 -0.062778,0.115532 -0.041705,0.177966 0.1441077,0.42792 0.075166,0.884349 -0.1892104,1.252406 -0.2636301,0.366976 -0.6738753,0.577512 -1.1254284,0.577512 -0.050714,0 -0.1011776,-0.0025 -0.1511511,-0.0082 l 0.5506249,-0.546362 c 0.032797,-0.03249 0.051281,-0.07679 0.051281,-0.123044 v -0.490426 c 0,-0.04598 -0.018277,-0.09007 -0.050818,-0.122576 L 6.1544292,22.30115 C 6.1219402,22.26866 6.0778422,22.25039 6.0318587,22.25039 H 5.5414325 c -0.046236,0 -0.09054,0.01848 -0.1231111,0.05128 l -0.5462951,0.550631 c -0.00541,-0.04999 -0.00814,-0.100427 -0.00814,-0.151151 0,-0.451621 0.2104695,-0.861799 0.5775118,-1.125429 0.3679844,-0.264377 0.8244857,-0.333385 1.2524731,-0.189211 0.062367,0.02106 0.1313079,0.0046 0.1778986,-0.04171 0.00952,-0.0095 3.4289782,-3.428978 3.4314182,-3.431419 0.0466,-0.0466 0.0627,-0.115459 0.04171,-0.177898 -0.144174,-0.427921 -0.07537,-0.884211 0.188799,-1.252 0.263836,-0.36731 0.674148,-0.577919 1.125774,-0.577919 0.05228,0 0.10422,0.0031 0.155686,0.0086 l -0.539183,0.547256 c -0.03197,0.03244 -0.04984,0.07612 -0.04984,0.121628 v 0.490422 c 0,0.04495 0.0174,0.08811 0.0486,0.120407 l 0.478981,0.496317 c 0.03264,0.03388 0.07767,0.05295 0.124738,0.05295 h 0.490426 c 0.04618,0 0.09048,-0.01844 0.12305,-0.05128 l 0.54629,-0.550564 c 0.0054,0.04999 0.0082,0.100431 0.0082,0.151151 0,0.764689 -0.622142,1.38683 -1.38683,1.38683 z m 0,0" />
          <path style="fill:#000000;fill-opacity:1;stroke:none;" d="m 9.9172659,18.789545 -2.1693944,2.169394 c -0.067649,0.06766 -0.067649,0.177426 0,0.245147 0.067721,0.06771 0.1774919,0.06771 0.2452133,0 l 2.1693932,-2.169399 c 0.06772,-0.06765 0.06772,-0.177426 0,-0.245142 -0.06771,-0.06772 -0.1774912,-0.06772 -0.2452121,0 z m 0,0" />
          <path style="fill:#000000;fill-opacity:1;stroke:none;" d="m 12.107997,23.394811 c 0.06771,0.06751 0.177491,0.06751 0.245212,-4.07e-4 0.06759,-0.06778 0.06738,-0.177559 -4.06e-4,-0.245141 l -1.562627,-1.557618 c -0.06778,-0.06758 -0.177632,-0.06738 -0.245147,4.07e-4 -0.06766,0.06785 -0.06745,0.177559 3.4e-4,0.245142 z m 0,0" />
        </g>
      </g>

      <text style="font-weight:bold;font-size:8px;font-family:sans-serif;fill:#000000;fill-opacity:1;stroke:none;" x="6.2303295" y="8.7520819" ><tspan style="stroke-width:0.3;" x="6.2303295" y="8.7520819" >1</tspan></text>
      <text style="font-weight:normal;font-size:8px;font-family:sans-serif;fill:#000000;fill-opacity:1;stroke:none;" y="8.8070288" x="19.259741" ><tspan style="stroke-width:0.3;" y="8.8070288" x="19.259741" >2</tspan></text>
      <text style="font-weight:normal;font-size:8px;font-family:sans-serif;fill:#000000;fill-opacity:1;stroke:none;" x="32.008308" y="8.7480116" ><tspan style="stroke-width:0.3;" x="32.008308" y="8.7480116" >3</tspan></text>
      <text style="font-weight:normal;font-size:8px;font-family:sans-serif;fill:#000000;fill-opacity:1;stroke:none;" y="8.7520819" x="44.866787" ><tspan style="stroke-width:0.3;" y="8.7520819" x="44.866787" >4</tspan></text>
    </svg>
