<?xml version="1.0" encoding="UTF-8" standalone="no"?>
<svg
   xmlns:dc="http://purl.org/dc/elements/1.1/"
   xmlns:cc="http://creativecommons.org/ns#"
   xmlns:rdf="http://www.w3.org/1999/02/22-rdf-syntax-ns#"
   xmlns:svg="http://www.w3.org/2000/svg"
   xmlns="http://www.w3.org/2000/svg"
   xmlns:sodipodi="http://sodipodi.sourceforge.net/DTD/sodipodi-0.dtd"
   xmlns:inkscape="http://www.inkscape.org/namespaces/inkscape"
   inkscape:version="1.0 (4035a4fb49, 2020-05-01)"
   sodipodi:docname="meterv2_2.svg"
   width="31.951897mm"
   height="9.5928192mm"
   viewBox="0 0 31.951897 9.5928192"
   version="1.1"
   id="svg1880">
  <sodipodi:namedview
     inkscape:current-layer="svg1880"
     inkscape:window-maximized="1"
     inkscape:window-y="27"
     inkscape:window-x="0"
     inkscape:cy="-7.577994"
     inkscape:cx="15.082934"
     inkscape:zoom="3.8954759"
     fit-margin-bottom="0"
     fit-margin-right="0"
     fit-margin-left="0"
     fit-margin-top="0"
     showgrid="false"
     id="namedview20"
     inkscape:window-height="949"
     inkscape:window-width="1920"
     inkscape:pageshadow="2"
     inkscape:pageopacity="0"
     guidetolerance="10"
     gridtolerance="10"
     objecttolerance="10"
     borderopacity="1"
     bordercolor="#666666"
     pagecolor="#ffffff" />
  <defs
     id="defs1874" />
  <metadata
     id="metadata1877">
    <rdf:RDF>
      <cc:Work
         rdf:about="">
        <dc:format>image/svg+xml</dc:format>
        <dc:type
           rdf:resource="http://purl.org/dc/dcmitype/StillImage" />
        <dc:title></dc:title>
      </cc:Work>
    </rdf:RDF>
  </metadata>
  <g
     id="g1443"
     transform="matrix(0.26458333,0,0,0.26458333,26.168534,-19.86212)">
    <g
       transform="translate(-0.53544544,72.904318)"
       id="g1239">
      <path
         style="fill:#ff5c00;fill-opacity:1;stroke-width:1.37357"
         fill="#abb0b4"
         d="m -62.504303,4.2543725 c -3.075885,0 -5.550637,2.4747519 -5.550637,5.5506377 V 30.778852 c 0,3.075885 2.474752,5.55332 5.550637,5.55332 h 20.898727 c 3.075885,0 5.550636,-2.477435 5.550636,-5.55332 V 9.8050102 c 0,-3.0758858 -2.474751,-5.5506377 -5.550636,-5.5506377 z"
         id="path1185" />
      <path
         style="fill:#ffffff;fill-rule:evenodd;stroke-width:0.958484"
         id="path1187"
         fill="#ff5c00"
         d="m -44.080359,17.772461 h -1.044747 c -0.134187,0 -0.230035,-0.105433 -0.287544,-0.249205 -0.03422,-0.05281 -0.05243,-0.114386 -0.05243,-0.17732 0,-0.06293 0.01821,-0.124517 0.05243,-0.177319 l 0.776371,-0.709278 c 0.152112,-0.14636 0.273072,-0.322041 0.355405,-0.516431 0.08243,-0.194389 0.124507,-0.403454 0.123836,-0.614579 -1.91e-4,-0.212409 -0.04265,-0.422644 -0.124985,-0.618471 -0.08224,-0.195828 -0.20272,-0.373311 -0.354256,-0.522124 l -1.284368,-1.313123 c -0.148756,-0.14983 -0.325693,-0.268739 -0.520648,-0.349875 -0.194956,-0.08115 -0.404,-0.122926 -0.615154,-0.122926 -0.211154,0 -0.4202,0.04178 -0.615155,0.122926 -0.194956,0.08114 -0.371892,0.200045 -0.520648,0.349875 l -0.738033,0.709277 c -0.05866,0.03757 -0.126807,0.05755 -0.196488,0.05755 -0.06968,0 -0.13783,-0.01998 -0.19649,-0.05755 -0.0579,-0.02158 -0.108404,-0.05916 -0.145785,-0.108385 -0.03728,-0.04921 -0.05991,-0.108021 -0.06508,-0.169575 v -0.987237 c 1.92e-4,-0.418886 -0.162846,-0.821363 -0.454608,-1.12201 -0.291667,-0.300638 -0.689054,-0.475772 -1.10772,-0.488242 h -1.859457 c -0.427963,-10e-6 -0.838481,0.169335 -1.142024,0.471046 -0.303504,0.301712 -0.475282,0.711262 -0.477813,1.139206 v 1.044747 c 0,0.134187 -0.105433,0.230035 -0.249205,0.287544 -0.05281,0.03424 -0.114386,0.05247 -0.17732,0.05247 -0.06293,0 -0.124517,-0.01822 -0.177319,-0.05247 l -0.709279,-0.776371 c -0.30357,-0.301759 -0.712603,-0.473625 -1.140595,-0.479242 -0.210952,4.13e-4 -0.419701,0.04303 -0.613937,0.125331 -0.194237,0.0823 -0.370041,0.202634 -0.517073,0.353911 l -1.313122,1.284368 c -0.15421,0.149246 -0.276829,0.327983 -0.360572,0.525575 -0.08374,0.197591 -0.126893,0.410001 -0.126893,0.624605 0,0.214604 0.04315,0.427014 0.126893,0.624605 0.08374,0.197592 0.206362,0.376329 0.360572,0.525575 l 0.709278,0.709278 c 0.03757,0.05865 0.05755,0.126836 0.05755,0.196489 0,0.06965 -0.01998,0.137839 -0.05755,0.196489 -0.02158,0.05788 -0.05916,0.108433 -0.108386,0.145766 -0.04921,0.03733 -0.108021,0.05991 -0.169575,0.0651 h -0.987237 c -0.427062,0 -0.836641,0.169652 -1.138621,0.471631 -0.30198,0.301961 -0.471631,0.711521 -0.471631,1.138621 v 1.811534 c -9e-6,0.427963 0.169335,0.838481 0.471046,1.142033 0.301712,0.303456 0.711262,0.475312 1.139206,0.477804 h 1.044747 c 0.134187,0 0.230035,0.105434 0.287544,0.249206 0.03424,0.05282 0.05247,0.114347 0.05247,0.177319 0,0.06297 -0.01822,0.124507 -0.05247,0.17732 l -0.776371,0.709277 c -0.301759,0.303552 -0.473625,0.712632 -0.479241,1.140595 -3.26e-4,0.212497 0.04191,0.422883 0.124219,0.618797 0.0823,0.195915 0.203026,0.373329 0.355022,0.521799 l 1.284368,1.303537 c 0.148776,0.149811 0.325731,0.268759 0.520667,0.349846 0.194927,0.08118 0.403991,0.122974 0.615135,0.122974 0.211145,0 0.420209,-0.04179 0.615136,-0.122974 0.194936,-0.08109 0.371891,-0.200035 0.520667,-0.349846 l 0.738033,-0.709278 c 0.05865,-0.03757 0.126836,-0.05751 0.196488,-0.05751 0.06965,0 0.13784,0.01994 0.19649,0.05751 0.05787,0.02157 0.108433,0.05914 0.145765,0.108405 0.03733,0.04917 0.05991,0.108021 0.0651,0.169555 v 1.044747 c 0.01491,0.417036 0.191112,0.811931 0.491491,1.101585 0.300408,0.289654 0.701438,0.451446 1.118761,0.451158 h 1.811533 c 0.427963,0 0.838481,-0.169364 1.142033,-0.470999 0.303456,-0.30173 0.475312,-0.71129 0.477804,-1.139253 v -1.04475 c 0,-0.134187 0.105433,-0.230036 0.249205,-0.287545 0.05282,-0.03422 0.114347,-0.05243 0.17732,-0.05243 0.06298,0 0.124507,0.01821 0.177319,0.05243 l 0.728448,0.738032 c 0.303552,0.301731 0.712632,0.473587 1.140595,0.479242 0.210962,-3.83e-4 0.41972,-0.04304 0.613909,-0.12537 0.194284,-0.08224 0.37007,-0.202623 0.517101,-0.353872 l 1.284368,-1.284368 c 0.149811,-0.148756 0.268759,-0.325691 0.349847,-0.520647 0.08118,-0.194956 0.122972,-0.404001 0.122972,-0.615155 0,-0.211153 -0.04179,-0.420199 -0.122972,-0.615154 -0.08109,-0.194956 -0.200036,-0.371893 -0.349847,-0.520649 l -0.699692,-0.699692 c -0.03422,-0.05281 -0.05243,-0.114347 -0.05243,-0.17732 0,-0.06298 0.01821,-0.124507 0.05243,-0.177319 0.02156,-0.0579 0.05914,-0.108405 0.108403,-0.145785 0.04917,-0.03728 0.108022,-0.05991 0.169557,-0.06508 h 1.044747 c 0.415406,-0.01486 0.808863,-0.189684 1.098324,-0.48806 0.289367,-0.29828 0.452213,-0.697009 0.454417,-1.112607 v -1.859459 c 0,-0.427963 -0.169364,-0.838481 -0.470999,-1.142024 -0.301729,-0.303503 -0.711289,-0.475282 -1.139252,-0.477813 z m -8.933064,6.354745 c 0,0.52937 0.429113,0.958484 0.958482,0.958484 0.529371,0 0.958484,-0.429114 0.958484,-0.958484 0,-0.52937 -0.429113,-0.958483 -0.958484,-0.958483 -0.529369,0 -0.958482,0.429113 -0.958482,0.958483 z m 0.28074,-7.387137 c 0.179715,-0.179744 0.423553,-0.28073 0.677742,-0.28073 0.25419,0 0.498029,0.100988 0.677744,0.28073 0.179716,0.179754 0.28074,0.423545 0.28074,0.677753 v 3.833935 c 0,0.254188 -0.10102,0.498027 -0.28074,0.677743 -0.179715,0.179715 -0.423554,0.28074 -0.677744,0.28074 -0.254189,0 -0.498027,-0.101019 -0.677742,-0.28074 -0.179716,-0.179716 -0.28074,-0.423555 -0.28074,-0.677743 v -3.833935 c 0,-0.254208 0.101019,-0.497999 0.28074,-0.677753 z"
         clipRule="evenodd"
         fillRule="evenodd" />
    </g>
    <g
       transform="matrix(1.030181,0,0,1.030181,-1.5047014,110.0134)"
       id="g1271">
      <path
         id="path1267"
         d="m -88.389454,-27.999924 c -2.239329,0 -4.041016,1.801687 -4.041016,4.041016 v 15.2695299 c 0,2.239329 1.801687,4.0429691 4.041016,4.0429691 h 15.214845 c 2.239329,0 4.041015,-1.8036401 4.041015,-4.0429691 V -23.958908 c 0,-2.239329 -1.801686,-4.041016 -4.041015,-4.041016 z"
         fill="#abb0b4"
         style="fill:#dc0e01;fill-opacity:1" />
      <path
         d="m -70.969444,-21.999832 c -0.1019,-0.40727 -0.6095,-0.54902 -0.9062,-0.25214 l -2.4094,2.4095 c -0.5351,0.53483 -1.4025,0.53483 -1.9375,0 l -1.1055,-1.10553 c -0.535,-0.53499 -0.535,-1.40237 0,-1.93745 l 2.3802,-2.38018 c 0.2988,-0.298842 0.1534,-0.811343 -0.2579,-0.907659 -0.5633,-0.131612 -1.1586,-0.180199 -1.7725,-0.131203 -2.6389,0.210546 -5.06767,2.684952 -5.23191,5.327212 -0.06221,1.00214 0.14028,1.94951 0.53483,2.78871 l -8.423075,7.238289 c -0.378844,0.3255 -0.643721,0.6281 -0.664702,1.1271001 -0.02123,0.499 0.203324,1.1497 0.553294,1.506 l 1.427443,1.4536 c 0.35336,0.36 0.84129,0.5557 1.34552,0.5395 0.50428,-0.0164 0.97863,-0.2428 1.30819,-0.6246 l 7.29581,-8.4530991 c 0.8146,0.3636 1.7263,0.549 2.689,0.489 2.6601,-0.166 5.135,-2.61425 5.3287,-5.27226 0.0458,-0.62967 -0.0106,-1.23943 -0.1543,-1.81479 z"
         fill="#dc0e01"
         id="path1269"
         style="fill:#ffffff" />
    </g>
    <g
       transform="matrix(1.0301811,0,0,1.0301811,-12.869866,110.0134)"
       id="g1283">
      <path
         fill="#abb0b4"
         d="m -14.971266,-27.999924 c -2.239329,0 -4.041016,1.801687 -4.041016,4.041016 v 15.2695296 c 0,2.239329 1.801687,4.042969 4.041016,4.042969 H 0.24357784 c 2.23932896,0 4.04101496,-1.80364 4.04101496,-4.042969 V -23.958908 c 0,-2.239329 -1.801686,-4.041016 -4.04101496,-4.041016 z"
         id="path1279"
         style="fill:#fdb400;fill-opacity:1" />
      <path
         d="M 1.3757524,-12.347449 -4.9755293,-22.88044 c -0.2567838,-0.401771 -0.6106173,-0.73241 -1.0288745,-0.961438 -0.4182571,-0.229035 -0.8874404,-0.349088 -1.3642421,-0.349088 -0.4768023,0 -0.9459857,0.120053 -1.3642425,0.349088 -0.418216,0.229028 -0.7720578,0.559667 -1.0288748,0.961438 l -6.3512808,10.532991 c -0.224366,0.374039 -0.346307,0.800494 -0.353577,1.236554 -0.0073,0.436143 0.100403,0.866407 0.312174,1.2476494 0.244842,0.4291882 0.599239,0.7856712 1.026969,1.0330151 0.42773,0.2472611 0.913467,0.3766053 1.407551,0.3747008 h 12.7025628 c 0.4908787,0.0053 0.97438763,-0.1190762 1.40183637,-0.3603752 C 0.81192088,-9.0572868 1.1680729,-9.4070623 1.4171558,-9.8301226 1.6351861,-10.215339 1.74623,-10.651814 1.738943,-11.094416 c -0.00729,-0.44252 -0.1326565,-0.875102 -0.3631906,-1.253033 z m -8.7443983,0.579648 c -0.1637918,0 -0.3238582,-0.04853 -0.4600753,-0.13953 -0.1361344,-0.09101 -0.2422928,-0.220348 -0.3049775,-0.371636 -0.062684,-0.151288 -0.07908,-0.317813 -0.047117,-0.478458 0.031963,-0.160562 0.1107955,-0.308124 0.2266422,-0.423971 0.1157638,-0.115764 0.2633255,-0.194679 0.4239716,-0.22656 0.1606452,-0.03197 0.3271696,-0.01557 0.4784577,0.04711 0.151288,0.0626 0.2806322,0.16876 0.3716369,0.304977 0.091005,0.136134 0.1395295,0.296283 0.1395295,0.459992 0,0.219687 -0.087278,0.430264 -0.2425412,0.585527 -0.1552627,0.155345 -0.3659232,0.242541 -0.5855269,0.242541 z m 0.8280681,-3.312272 c 0,0.219686 -0.087278,0.430264 -0.2425412,0.585526 -0.1552627,0.155346 -0.3659232,0.242541 -0.5855269,0.242541 -0.2196044,0 -0.4302649,-0.0872 -0.5855276,-0.242541 -0.1552628,-0.155262 -0.2425412,-0.36584 -0.2425412,-0.585526 v -3.312239 c 0,-0.219621 0.087278,-0.430239 0.2425412,-0.585536 0.1552627,-0.155286 0.3659232,-0.242532 0.5855276,-0.242532 0.2196037,0 0.4302642,0.08725 0.5855269,0.242532 0.1552628,0.155297 0.2425412,0.365915 0.2425412,0.585536 z"
         fill="#fdb400"
         id="path1281"
         style="fill:#ffffff;fill-rule:nonzero;stroke-width:0.828068" />
    </g>
    <g
       transform="matrix(1.0301811,0,0,1.0301811,-24.101372,110.0134)"
       id="g1289">
      <path
         fill="#abb0b4"
         d="m 23.241368,-27.999924 c -2.239329,0 -4.041016,1.801687 -4.041016,4.041016 v 15.2695297 c 0,2.239329 1.801687,4.042969 4.041016,4.042969 h 15.214844 c 2.239329,0 4.041015,-1.80364 4.041015,-4.042969 V -23.958908 c 0,-2.239329 -1.801686,-4.041016 -4.041015,-4.041016 z"
         id="path1285"
         style="fill:#58cc00;fill-opacity:1" />
      <path
         d="m 30.84879,-24.353884 c -1.588313,0 -3.140979,0.470993 -4.461621,1.353415 -1.320642,0.882431 -2.349954,2.136651 -2.957781,3.604078 -0.607829,1.467395 -0.766861,3.082129 -0.456996,4.639926 0.309864,1.557797 1.074717,2.988708 2.197836,4.111883 1.123111,1.1230941 2.554046,1.8879395 4.111851,2.1978442 1.557797,0.3098248 3.172531,0.1508168 4.639902,-0.4570277 1.467452,-0.6078444 2.721687,-1.6371405 3.604102,-2.9577905 0.882413,-1.32065 1.353414,-2.873306 1.353414,-4.46162 0,-1.054593 -0.207754,-2.09889 -0.611297,-3.073215 -0.403543,-0.974335 -0.995085,-1.859632 -1.740816,-2.605355 -0.745731,-0.745715 -1.631037,-1.337258 -2.605403,-1.740841 -0.974286,-0.403574 -2.018599,-0.611297 -3.073191,-0.611297 z m 3.453204,6.111368 -3.670033,4.818426 c -0.07485,0.09717 -0.170894,0.175952 -0.280834,0.23024 -0.110021,0.05429 -0.230963,0.08263 -0.353592,0.08296 -0.121987,6.43e-4 -0.242527,-0.0265 -0.352468,-0.07934 -0.10986,-0.05292 -0.206309,-0.130098 -0.281958,-0.225824 l -1.959493,-2.49755 c -0.06485,-0.08328 -0.112671,-0.178603 -0.140706,-0.280352 -0.02804,-0.10183 -0.03575,-0.208156 -0.0227,-0.312877 0.01305,-0.1048 0.04661,-0.205987 0.09876,-0.297778 0.05216,-0.09179 0.121875,-0.172419 0.205186,-0.237307 0.168267,-0.130982 0.381667,-0.189766 0.593268,-0.163425 0.104769,0.01309 0.205948,0.04666 0.297755,0.09878 0.09181,0.05212 0.172435,0.121907 0.237291,0.205185 l 1.309006,1.670387 3.035607,-4.015354 c 0.06432,-0.08437 0.144633,-0.155242 0.236343,-0.208566 0.09179,-0.05333 0.193059,-0.08807 0.298261,-0.102239 0.105123,-0.01417 0.212011,-0.0075 0.314563,0.01966 0.102552,0.02714 0.19876,0.07423 0.283162,0.138562 0.0844,0.06433 0.155234,0.144649 0.208558,0.236367 0.05332,0.09173 0.0881,0.193051 0.102231,0.298196 0.01421,0.105147 0.0075,0.212052 -0.01968,0.31462 -0.02714,0.102568 -0.0742,0.198776 -0.13853,0.283146 z"
         fill="#58cc00"
         id="path1287"
         style="fill:#ffffff;stroke-width:0.803071" />
    </g>
  </g>
</svg>
