    <svg viewBox="0 0 57 30" fill="none" xmlns="http://www.w3.org/2000/svg">
      <rect style="fill:#d84237;fill-opacity:1;stroke:none;" x="2.5331495" y="12.047314" width="12.844224" height="16.193937" color="#d84237" />
      <rect style="fill:#e4944d;fill-opacity:1;stroke:none;" x="15.377373" y="12.047314" width="12.844224" height="16.193937" color="#e4944d" />
      <rect style="fill:#e6c83b;fill-opacity:1;stroke:none;" x="28.221598" y="12.047314" width="12.844224" height="16.193937" color="#e6c83b" />
      <rect style="fill:#289554;fill-opacity:1;stroke:none;" x="41.065819" y="12.047314" width="12.844224" height="16.193937" color="#289554" />

      <g>
        <rect style="fill:#000000;fill-opacity:0.3;stroke:none;" y="10.817696" x="26.904621" height="19.182287" width="16.536463" />
        <rect style="fill:#e6c83b;fill-opacity:1;stroke:none;" x="26.375462" y="10.288536" width="16.536463" height="19.182287" color="#e6c83b" />
        <g>
          <path style="fill:#000000;fill-opacity:1;stroke:none;" d="m 33.346488,19.266685 c 0.04213,0 0.08418,-0.01601 0.116287,-0.04813 l 0.459155,-0.459154 c 0.06423,-0.06423 0.06423,-0.168351 0,-0.232489 -0.06422,-0.06423 -0.168266,-0.06431 -0.232574,0 l -0.459069,0.45907 c -0.06422,0.06422 -0.06422,0.16835 0,0.232573 0.03211,0.03211 0.07416,0.04813 0.116201,0.04813 z m 0,0" />
          <path style="fill:#000000;fill-opacity:1;stroke:none;" d="m 32.688754,19.785354 c 0.07047,0.06962 0.143861,0.134697 0.219645,0.195239 0.06696,0.05352 0.136239,0.103956 0.207569,0.150882 0.0021,0.0014 0.0043,0.0028 0.0066,0.0041 0.460353,0.300652 0.990839,0.45102 1.52141,0.45102 0.712623,0 1.425331,-0.27128 1.967891,-0.813839 0.52569,-0.52569 0.815123,-1.224527 0.815123,-1.967977 0,-0.743365 -0.289433,-1.442286 -0.815123,-1.967891 -0.525605,-0.52569 -1.224527,-0.815123 -1.967891,-0.815123 -0.743365,0 -1.442287,0.289519 -1.967976,0.815123 -0.525605,0.525605 -0.815124,1.224526 -0.815124,1.967891 0,0.74345 0.289519,1.442287 0.815124,1.967977 0.0043,0.0042 0.0085,0.0084 0.01276,0.01258 z m -0.498973,-1.980565 c 0,-0.655507 0.255267,-1.271795 0.718789,-1.735402 0.463522,-0.463522 1.079895,-0.718789 1.735402,-0.718789 0.655507,0 1.27188,0.255267 1.735402,0.718789 0.463522,0.463607 0.718875,1.079895 0.718875,1.735402 0,0.655592 -0.255353,1.271881 -0.718875,1.735402 -0.463522,0.463608 -1.079895,0.718874 -1.735402,0.718874 -0.41651,0 -0.817179,-0.103099 -1.17289,-0.29714 l 0.542216,-0.542131 c 0.166639,-0.166724 0.387224,-0.275219 0.620998,-0.305447 l 1.051894,-0.136068 c 0.0049,-5.99e-4 0.0097,-0.0014 0.01456,-0.0026 0.194725,-0.04324 0.342438,-0.198237 0.376434,-0.39476 l 0.201833,-1.16938 c 0.01541,-0.08889 -0.01353,-0.179996 -0.07733,-0.243792 l -0.07193,-0.07185 c -0.05249,-0.05249 -0.122195,-0.08144 -0.196437,-0.08144 -0.07424,0 -0.144032,0.02895 -0.196524,0.08144 l -0.677259,0.677284 c -0.05129,0.05121 -0.119456,0.07947 -0.1919,0.07947 -0.07253,0 -0.140607,-0.02826 -0.191899,-0.07955 -0.05129,-0.05129 -0.07955,-0.11937 -0.07955,-0.191813 0,-0.07253 0.02826,-0.140607 0.07947,-0.1919 l 0.677343,-0.677343 c 0.108323,-0.108324 0.108323,-0.284638 0,-0.392962 l -0.07193,-0.07193 c -0.06379,-0.06379 -0.154908,-0.09274 -0.243793,-0.07733 l -1.16938,0.201833 c -0.196523,0.03399 -0.351515,0.181709 -0.39476,0.376435 -0.0011,0.0048 -0.002,0.0097 -0.0026,0.01456 l -0.136068,1.051894 c -0.03023,0.233773 -0.138722,0.454274 -0.30536,0.620998 l -0.542218,0.542131 c -0.194126,-0.355712 -0.29714,-0.756381 -0.29714,-1.172891 z m 1.071761,0.863248 c 0.21776,-0.21776 0.35948,-0.505909 0.399042,-0.811356 l 0.134869,-1.043244 c 0.01601,-0.06097 0.06577,-0.106868 0.12836,-0.117744 l 1.143349,-0.19738 0.01721,0.01722 -0.641292,0.641378 c -0.113376,0.11329 -0.175802,0.264001 -0.175802,0.424388 0,0.160216 0.06251,0.310927 0.175887,0.424388 0.113376,0.113376 0.264087,0.175801 0.424474,0.175801 0.160301,0 0.311013,-0.06243 0.424389,-0.175801 l 0.641206,-0.641292 0.01721,0.0173 -0.19738,1.143348 c -0.01079,0.06251 -0.05669,0.112263 -0.117743,0.128276 l -1.043245,0.134955 c -0.30536,0.03948 -0.593595,0.181195 -0.811355,0.398955 l -0.593254,0.593253 c -0.07998,-0.05909 -0.156619,-0.123308 -0.229234,-0.191985 0,0 -8.8e-5,-8.8e-5 -1.76e-4,-1.75e-4 -0.01019,-0.0097 -0.02038,-0.01944 -0.03048,-0.02929 -0.0018,-0.0018 -0.0036,-0.0036 -0.0054,-0.0053 -0.0034,-0.0034 -0.0069,-0.0069 -0.01027,-0.01027 -0.0011,-9.92e-4 -0.0022,-0.0021 -0.0033,-0.0033 -0.0011,-9.92e-4 -0.0022,-0.0021 -0.0034,-0.0033 -0.0034,-0.0035 -0.0069,-0.007 -0.01037,-0.01053 -0.0016,-0.0016 -0.0033,-0.0033 -0.0049,-0.0049 -0.0098,-0.01011 -0.01961,-0.02021 -0.02937,-0.03048 -1.76e-4,-2.56e-4 -4.28e-4,-4.27e-4 -5.99e-4,-6.84e-4 -0.06851,-0.07253 -0.132643,-0.149084 -0.191814,-0.229063 z m 0,0" />
          <path style="fill:#000000;fill-opacity:1;stroke:none;" d="M 40.137729,21.034285 C 39.92699,20.724557 39.502602,20.642608 39.191932,20.851376 l -2.149429,1.438433 -0.458727,-0.02569 -0.01173,-0.117487 c -0.04572,-0.460096 -0.397414,-0.826683 -0.855199,-0.89142 -0.0014,-2.57e-4 -0.0028,-4.28e-4 -0.0042,-5.98e-4 l -1.750733,-0.201578 c -0.384313,-0.05463 -0.749016,-0.18171 -1.084091,-0.37772 -0.505909,-0.295941 -1.083149,-0.452389 -1.669294,-0.452389 H 30.689004 V 20.00962 c 0,-0.188133 -0.153023,-0.341241 -0.341155,-0.341241 h -0.974911 c -0.188132,-1e-6 -0.341155,0.153108 -0.341155,0.34124 v 3.933983 c 0,0.188132 0.153023,0.341155 0.341155,0.341155 h 0.974911 c 0.188132,0 0.341155,-0.153023 0.341155,-0.341155 v -0.213906 l 2.537595,0.960953 c 0.0044,0.0017 0.009,0.0032 0.01353,0.0044 0.100102,0.02826 0.20012,0.04247 0.299195,0.04247 0.05378,0 0.107382,-0.0042 0.160559,-0.01258 8.7e-5,0 2.57e-4,-8.8e-5 4.27e-4,-8.8e-5 l 3.361283,-0.484501 c 8.39e-4,-8.8e-5 0.0016,-2.57e-4 0.0025,-3.43e-4 0.287292,-0.0459 0.558315,-0.167409 0.783867,-0.351259 0.0021,-0.0017 0.004,-0.0034 0.006,-0.0052 l 0.784982,-0.705943 c 0.06748,-0.06071 0.07304,-0.164669 0.01233,-0.232232 -0.06071,-0.06748 -0.164669,-0.07304 -0.232232,-0.01225 l -0.781898,0.703204 c -0.17974,0.145658 -0.395274,0.242079 -0.623738,0.27873 L 33.652088,24.3996 c -6.84e-4,8.8e-5 -0.0037,6e-4 -0.0045,6.83e-4 -0.100532,0.01593 -0.205258,0.0093 -0.311441,-0.01987 l -2.647032,-1.002312 v -1.803736 c 0,-0.09077 -0.07356,-0.164412 -0.164412,-0.164412 -0.09077,0 -0.164412,0.07364 -0.164412,0.164412 v 2.369245 c 0,0.0069 -0.0055,0.01233 -0.01233,0.01233 H 29.37305 c -0.0068,0 -0.01233,-0.0055 -0.01233,-0.01233 v -3.933984 c 0,-0.0069 0.0056,-0.01242 0.01233,-0.01242 h 0.974911 c 0.0069,0 0.01233,0.0056 0.01233,0.01242 v 0.79971 c 0,0.09085 0.07365,0.164411 0.164412,0.164411 0.09085,0 0.164412,-0.07356 0.164412,-0.164411 v -0.257579 h 0.519525 c 0.52783,0 1.047612,0.140949 1.503255,0.407433 0.372753,0.218017 0.778559,0.359223 1.206117,0.419765 0.0014,2.56e-4 0.0028,4.27e-4 0.0042,5.12e-4 l 1.750645,0.201576 c 0.306302,0.04427 0.54136,0.289948 0.572016,0.598049 l 0.0079,0.07895 -3.09377,0.03571 c -0.05575,-0.0055 -0.106097,-0.03219 -0.141976,-0.07527 -0.05814,-0.0697 -0.161844,-0.07912 -0.231548,-0.02089 -0.0697,0.05814 -0.07912,0.161844 -0.02098,0.231547 0.09257,0.110978 0.222812,0.179312 0.367186,0.192414 0.0054,4.27e-4 0.0107,7.63e-4 0.0161,9.91e-4 0.0022,8.8e-5 0.0045,8.8e-5 0.0068,8.8e-5 h 0.002 l 3.273939,-0.03785 0.648657,0.0364 c 0.03588,0.002 0.07098,-0.0076 0.100702,-0.02749 l 2.195414,-1.469261 c 0.161243,-0.108409 0.381401,-0.06585 0.490752,0.09479 0.09993,0.146858 0.0751,0.346549 -0.05848,0.465149 l -0.813839,0.731975 c -0.06748,0.06071 -0.07304,0.164669 -0.01233,0.232232 0.03254,0.03605 0.07732,0.05446 0.122282,0.05446 0.03922,0 0.07852,-0.01396 0.109951,-0.04222 l 0.813068,-0.731291 c 0.256037,-0.227265 0.303905,-0.612178 0.111235,-0.895274 z m 0,0" />
        </g>
      </g>

      <text style="font-weight:normal;font-size:8px;font-family:sans-serif;fill:#000000;fill-opacity:1;stroke:none;" x="6.2303295" y="8.7520819" ><tspan style="stroke-width:0.3;" x="6.2303295" y="8.7520819" >1</tspan></text>
      <text style="font-weight:normal;font-size:8px;font-family:sans-serif;fill:#000000;fill-opacity:1;stroke:none;" y="8.8070288" x="19.259741" ><tspan style="stroke-width:0.3;" y="8.8070288" x="19.259741" >2</tspan></text>
      <text style="font-weight:bold;font-size:8px;font-family:sans-serif;fill:#000000;fill-opacity:1;stroke:none;" x="32.008308" y="8.7480116" ><tspan style="stroke-width:0.3;" x="32.008308" y="8.7480116" >3</tspan></text>
      <text style="font-weight:normal;font-size:8px;font-family:sans-serif;fill:#000000;fill-opacity:1;stroke:none;" y="8.7520819" x="44.866787" ><tspan style="stroke-width:0.3;" y="8.7520819" x="44.866787" >4</tspan></text>
    </svg>
