<?xml version="1.0" encoding="UTF-8" standalone="no"?>
<svg
   id="svg2330"
   version="1.1"
   viewBox="0 0 8.4666653 8.4872503"
   height="8.4872503mm"
   width="8.4666653mm"
   xmlns="http://www.w3.org/2000/svg"
   xmlns:svg="http://www.w3.org/2000/svg"
   xmlns:rdf="http://www.w3.org/1999/02/22-rdf-syntax-ns#"
   xmlns:cc="http://creativecommons.org/ns#"
   xmlns:dc="http://purl.org/dc/elements/1.1/">
  <defs
     id="defs2324" />
  <metadata
     id="metadata2327">
    <rdf:RDF>
      <cc:Work
         rdf:about="">
        <dc:format>image/svg+xml</dc:format>
        <dc:type
           rdf:resource="http://purl.org/dc/dcmitype/StillImage" />
      </cc:Work>
    </rdf:RDF>
  </metadata>
  <path
     id="path1179"
     d="M 1.468605,0 C 0.654777,0 0,0.65477 0,1.4686 v 5.54933 c 0,0.81383 0.654777,1.46932 1.468605,1.46932 h 5.529454 c 0.813828,0 1.468606,-0.65549 1.468606,-1.46932 V 1.4686 C 8.466665,0.65477 7.811887,0 6.998059,0 Z"
     fill="#abb0b4"
     style="fill:#555555;fill-opacity:1;stroke-width:0.363426" />
  <path
     d="M 6.907937,2.69634 C 6.880167,2.58533 6.741806,2.54669 6.660935,2.62764 L 6.004208,3.2844 c -0.145852,0.14578 -0.382278,0.14578 -0.528102,0 L 5.174781,2.98307 c -0.145824,-0.14583 -0.145824,-0.38225 0,-0.52809 L 5.823549,1.80622 C 5.904989,1.72472 5.865359,1.58507 5.753249,1.55882 5.599711,1.52292 5.437451,1.50972 5.270121,1.52302 4.550839,1.58042 3.888832,2.25486 3.844066,2.97506 3.827106,3.24821 3.882306,3.50643 3.989844,3.73517 L 1.693977,5.7081 C 1.590716,5.7968 1.518519,5.8793 1.5128,6.01531 1.507,6.15133 1.56822,6.32869 1.663611,6.4258 l 0.389076,0.39621 c 0.09632,0.0981 0.229309,0.15146 0.366747,0.14705 0.13745,-0.004 0.266744,-0.0662 0.356571,-0.17025 L 4.764615,4.49476 C 4.986649,4.59386 5.23515,4.6444 5.497552,4.62805 6.222612,4.58275 6.897192,3.91549 6.949989,3.191 6.962469,3.01937 6.947089,2.85317 6.907929,2.69634 Z"
     fill="#dc0e01"
     id="path1181"
     style="fill:#ffffff;stroke-width:0.272568" />
</svg>
