<?xml version="1.0" encoding="UTF-8" standalone="no"?>
<svg
   xmlns:dc="http://purl.org/dc/elements/1.1/"
   xmlns:cc="http://creativecommons.org/ns#"
   xmlns:rdf="http://www.w3.org/1999/02/22-rdf-syntax-ns#"
   xmlns:svg="http://www.w3.org/2000/svg"
   xmlns="http://www.w3.org/2000/svg"
   xmlns:sodipodi="http://sodipodi.sourceforge.net/DTD/sodipodi-0.dtd"
   xmlns:inkscape="http://www.inkscape.org/namespaces/inkscape"
   sodipodi:docname="meterv2_4.svg"
   inkscape:version="1.0 (4035a4fb49, 2020-05-01)"
   id="svg2132"
   version="1.1"
   viewBox="0 0 31.951897 9.5928192"
   height="9.5928192mm"
   width="31.951897mm">
  <defs
     id="defs2126" />
  <sodipodi:namedview
     fit-margin-bottom="0"
     fit-margin-right="0"
     fit-margin-left="0"
     fit-margin-top="0"
     inkscape:window-maximized="1"
     inkscape:window-y="27"
     inkscape:window-x="0"
     inkscape:window-height="949"
     inkscape:window-width="1920"
     showgrid="false"
     inkscape:document-rotation="0"
     inkscape:current-layer="layer1"
     inkscape:document-units="mm"
     inkscape:cy="-0.26492387"
     inkscape:cx="91.03173"
     inkscape:zoom="5.6"
     inkscape:pageshadow="2"
     inkscape:pageopacity="0.0"
     borderopacity="1.0"
     bordercolor="#666666"
     pagecolor="#ffffff"
     id="base" />
  <metadata
     id="metadata2129">
    <rdf:RDF>
      <cc:Work
         rdf:about="">
        <dc:format>image/svg+xml</dc:format>
        <dc:type
           rdf:resource="http://purl.org/dc/dcmitype/StillImage" />
        <dc:title></dc:title>
      </cc:Work>
    </rdf:RDF>
  </metadata>
  <g
     transform="translate(-88.345482,-148.66193)"
     id="layer1"
     inkscape:groupmode="layer"
     inkscape:label="Layer 1">
    <g
       id="g1471"
       transform="matrix(0.26458333,0,0,0.26458333,114.93362,107.2211)">
      <g
         transform="translate(0.09925198,154.46164)"
         id="g1231">
        <path
           style="fill:#58cc00;fill-opacity:1;stroke-width:1.37357"
           id="path1197"
           d="m -8.4560376,4.2543725 c -3.0758854,0 -5.5506374,2.4747519 -5.5506374,5.5506377 V 30.778852 c 0,3.075885 2.474752,5.55332 5.5506374,5.55332 H 12.442689 c 3.075885,0 5.550636,-2.477435 5.550636,-5.55332 V 9.8050102 c 0,-3.0758858 -2.474751,-5.5506377 -5.550636,-5.5506377 z"
           fill="#abb0b4"
           sodipodi:nodetypes="sssssssss" />
        <path
           style="fill:#ffffff;stroke-width:0.827309"
           id="path1199"
           fill="#58cc00"
           d="m 1.9933259,12.020179 c -1.63624999,0 -3.2357772,0.485208 -4.5962776,1.394263 -1.3605004,0.909063 -2.4208782,2.201137 -3.0470501,3.712853 -0.6261737,1.511682 -0.7900057,3.175151 -0.4707887,4.779964 0.3192161,1.604813 1.1071532,3.07891 2.2641692,4.235984 1.1570077,1.15699 2.6311299,1.944919 4.23595121,2.264177 1.60481299,0.319176 3.26828139,0.155369 4.77993929,-0.470821 1.5117413,-0.62619 2.8038305,-1.686551 3.7128778,-3.04706 0.9090452,-1.360508 1.394262,-2.960025 1.394262,-4.596276 0,-1.086422 -0.214025,-2.162237 -0.6297471,-3.165968 C 9.2209395,16.123553 8.6115441,15.211537 7.8433061,14.443307 7.0750681,13.675086 6.1630426,13.065689 5.1592692,12.649926 4.1555782,12.234172 3.0797467,12.020179 1.9933259,12.020179 Z m 3.5574255,6.295816 -3.7807986,4.963851 c -0.077109,0.100103 -0.1760518,0.181263 -0.2893099,0.237189 -0.1133416,0.05593 -0.2379337,0.08512 -0.3642638,0.08546 -0.12566869,6.62e-4 -0.24984669,-0.0273 -0.36310589,-0.08173 -0.1131757,-0.05452 -0.2125356,-0.134024 -0.2904678,-0.232639 L -1.5558272,20.715197 c -0.066807,-0.08579 -0.1160716,-0.183994 -0.1449527,-0.288813 -0.028886,-0.104904 -0.036829,-0.214439 -0.023385,-0.32232 0.013444,-0.107963 0.048017,-0.212204 0.1017407,-0.306766 0.053734,-0.09456 0.1255533,-0.177622 0.2113787,-0.244469 0.1733455,-0.134935 0.3931862,-0.195493 0.61117351,-0.168357 0.1079311,0.01348 0.2121637,0.04807 0.3067416,0.101761 0.094581,0.05369 0.1776393,0.125586 0.2444527,0.211378 l 1.34851319,1.720801 3.127225,-4.136542 c 0.066261,-0.08692 0.1489982,-0.159927 0.2434761,-0.214861 0.09456,-0.05494 0.1988857,-0.09073 0.3072628,-0.105324 0.1082958,-0.0146 0.2184098,-0.0077 0.3240569,0.02025 0.1056471,0.02796 0.2047588,0.07647 0.2917081,0.142744 0.086947,0.06627 0.1599192,0.149015 0.2148525,0.243501 0.054929,0.0945 0.090759,0.198877 0.1053165,0.307196 0.014639,0.10832 0.00773,0.218452 -0.020274,0.324115 -0.027959,0.105664 -0.076439,0.204776 -0.142711,0.291692 z" />
      </g>
      <g
         transform="matrix(1.030181,0,0,1.030181,-3.0905931,191.57073)"
         id="g1323">
        <path
           id="path1319"
           d="m -88.389454,-27.999924 c -2.239329,0 -4.041016,1.801687 -4.041016,4.041016 v 15.2695299 c 0,2.239329 1.801687,4.0429691 4.041016,4.0429691 h 15.214845 c 2.239329,0 4.041015,-1.8036401 4.041015,-4.0429691 V -23.958908 c 0,-2.239329 -1.801686,-4.041016 -4.041015,-4.041016 z"
           fill="#abb0b4"
           sodipodi:nodetypes="sssssssss"
           style="fill:#dc0e01;fill-opacity:1" />
        <path
           d="m -70.969444,-21.999832 c -0.1019,-0.40727 -0.6095,-0.54902 -0.9062,-0.25214 l -2.4094,2.4095 c -0.5351,0.53483 -1.4025,0.53483 -1.9375,0 l -1.1055,-1.10553 c -0.535,-0.53499 -0.535,-1.40237 0,-1.93745 l 2.3802,-2.38018 c 0.2988,-0.298842 0.1534,-0.811343 -0.2579,-0.907659 -0.5633,-0.131612 -1.1586,-0.180199 -1.7725,-0.131203 -2.6389,0.210546 -5.06767,2.684952 -5.23191,5.327212 -0.06221,1.00214 0.14028,1.94951 0.53483,2.78871 l -8.423075,7.238289 c -0.378844,0.3255 -0.643721,0.6281 -0.664702,1.1271001 -0.02123,0.499 0.203324,1.1497 0.553294,1.506 l 1.427443,1.4536 c 0.35336,0.36 0.84129,0.5557 1.34552,0.5395 0.50428,-0.0164 0.97863,-0.2428 1.30819,-0.6246 l 7.29581,-8.4530991 c 0.8146,0.3636 1.7263,0.549 2.689,0.489 2.6601,-0.166 5.135,-2.61425 5.3287,-5.27226 0.0458,-0.62967 -0.0106,-1.23943 -0.1543,-1.81479 z"
           fill="#dc0e01"
           id="path1321"
           style="fill:#ffffff" />
      </g>
      <g
         transform="matrix(1.0301811,0,0,1.0301811,-3.2331406,191.57073)"
         id="g1329">
        <path
           id="path1325"
           d="m -60.940895,-27.999924 c -2.239329,0 -4.041016,1.801687 -4.041016,4.041016 v 15.26953 c 0,2.239329 1.801687,4.0429689 4.041016,4.0429689 h 15.214844 c 2.239329,0 4.041015,-1.8036399 4.041015,-4.0429689 v -15.26953 c 0,-2.239329 -1.801686,-4.041016 -4.041015,-4.041016 z"
           fill="#abb0b4"
           sodipodi:nodetypes="sssssssss"
           style="fill:#ff5c00;fill-opacity:1" />
        <path
           fillRule="evenodd"
           clipRule="evenodd"
           d="m -45.592525,-18.770125 h -1.014139 c -0.130256,0 -0.223296,-0.102344 -0.27912,-0.241904 -0.03322,-0.05126 -0.05089,-0.111035 -0.05089,-0.172125 0,-0.06109 0.01768,-0.120869 0.05089,-0.172124 l 0.753626,-0.688499 c 0.147655,-0.142072 0.265072,-0.312606 0.344993,-0.501301 0.08002,-0.188694 0.120859,-0.391634 0.120208,-0.596574 -1.86e-4,-0.206186 -0.0414,-0.410261 -0.121324,-0.600351 -0.07983,-0.190091 -0.196781,-0.362374 -0.343877,-0.506828 l -1.24674,-1.274652 c -0.144398,-0.14544 -0.316151,-0.260866 -0.505395,-0.339625 -0.189244,-0.07877 -0.392164,-0.119324 -0.597132,-0.119324 -0.204968,0 -0.407889,0.04056 -0.597133,0.119324 -0.189244,0.07876 -0.360996,0.194185 -0.505394,0.339625 l -0.716411,0.688498 c -0.05694,0.03647 -0.123092,0.05586 -0.190732,0.05586 -0.06764,0 -0.133792,-0.01939 -0.190733,-0.05586 -0.0562,-0.02095 -0.105228,-0.05743 -0.141514,-0.10521 -0.03619,-0.04777 -0.05815,-0.104856 -0.06317,-0.164607 v -0.958314 c 1.86e-4,-0.406614 -0.158076,-0.7973 -0.44129,-1.089139 -0.283122,-0.29183 -0.668867,-0.461833 -1.075267,-0.473938 h -1.804981 c -0.415425,-9e-6 -0.813916,0.164374 -1.108566,0.457246 -0.294612,0.292873 -0.461358,0.690424 -0.463815,1.105831 v 1.014139 c 0,0.130256 -0.102344,0.223296 -0.241904,0.27912 -0.05126,0.03324 -0.111035,0.05093 -0.172125,0.05093 -0.06109,0 -0.120869,-0.01769 -0.172124,-0.05093 l -0.688499,-0.753626 c -0.294677,-0.292918 -0.691726,-0.459749 -1.107179,-0.465201 -0.204772,4e-4 -0.407405,0.04177 -0.595951,0.121659 -0.188546,0.07989 -0.3592,0.196697 -0.501924,0.343542 l -1.274652,1.24674 c -0.149692,0.144873 -0.268719,0.318374 -0.350008,0.510177 -0.08129,0.191802 -0.123176,0.397989 -0.123176,0.606306 0,0.208317 0.04189,0.414504 0.123176,0.606306 0.08129,0.191803 0.200316,0.365304 0.350008,0.510177 l 0.688498,0.688499 c 0.03647,0.05693 0.05586,0.12312 0.05586,0.190732 0,0.06761 -0.01939,0.133801 -0.05586,0.190733 -0.02095,0.05618 -0.05743,0.105256 -0.10521,0.141495 -0.04777,0.03624 -0.104856,0.05815 -0.164607,0.06319 h -0.958314 c -0.414551,0 -0.81213,0.164682 -1.105263,0.457814 -0.293133,0.293114 -0.457814,0.690675 -0.457814,1.105263 v 1.758461 c -9e-6,0.415425 0.164374,0.813917 0.457246,1.108575 0.292873,0.294566 0.690424,0.461387 1.105831,0.463806 h 1.014139 c 0.130256,0 0.223296,0.102345 0.27912,0.241905 0.03324,0.05127 0.05093,0.110997 0.05093,0.172124 0,0.06113 -0.01769,0.12086 -0.05093,0.172125 l -0.753626,0.688498 c -0.292918,0.294659 -0.459749,0.691754 -0.465201,1.107179 -3.16e-4,0.206271 0.04068,0.410494 0.12058,0.600668 0.07989,0.190175 0.197078,0.362392 0.344621,0.506512 l 1.24674,1.2653472 c 0.144417,0.145422 0.316188,0.260885 0.505413,0.339597 0.189216,0.078805 0.392156,0.1193707 0.597114,0.1193707 0.204959,0 0.407898,-0.040566 0.597114,-0.1193707 0.189225,-0.078712 0.360996,-0.194175 0.505413,-0.339597 l 0.716411,-0.688498 c 0.05693,-0.036472 0.12312,-0.055824 0.190732,-0.055824 0.06761,0 0.133801,0.019352 0.190733,0.055824 0.05618,0.020934 0.105256,0.057406 0.141495,0.1052286 0.03624,0.04773 0.05815,0.1048563 0.06319,0.1645882 v 1.014139 c 0.01447,0.4048182 0.185513,0.7881442 0.477092,1.0693118 0.291607,0.2811677 0.680888,0.4382197 1.085985,0.4379406 h 1.758461 c 0.415425,0 0.813916,-0.1644022 1.108575,-0.4571999 0.294565,-0.2928908 0.461387,-0.6904518 0.463806,-1.1058767 v -1.014139 c 0,-0.1302564 0.102344,-0.2232966 0.241904,-0.2791208 0.05127,-0.033215 0.110997,-0.050893 0.172125,-0.050893 0.06113,0 0.120859,0.017678 0.172124,0.050893 l 0.707107,0.7164101 c 0.294658,0.2928908 0.691754,0.459712 1.107179,0.4652014 0.204781,-3.722e-4 0.407423,-0.041775 0.595923,-0.1216967 0.188592,-0.079829 0.359228,-0.1966871 0.501952,-0.3435047 l 1.24674,-1.2467401 c 0.145422,-0.144398 0.260885,-0.31615 0.339597,-0.505394 0.0788,-0.189244 0.11937,-0.392165 0.11937,-0.597133 0,-0.204967 -0.04057,-0.407888 -0.11937,-0.597132 -0.07871,-0.189244 -0.194175,-0.360997 -0.339597,-0.505395 l -0.679194,-0.679194 c -0.03322,-0.05126 -0.05089,-0.110997 -0.05089,-0.172125 0,-0.06113 0.01768,-0.120859 0.05089,-0.172124 0.02093,-0.0562 0.05741,-0.105229 0.105228,-0.141514 0.04773,-0.03619 0.104857,-0.05815 0.164589,-0.06317 h 1.014139 c 0.403236,-0.01442 0.785166,-0.184127 1.066147,-0.473761 0.280889,-0.289542 0.438964,-0.676589 0.441104,-1.080012 v -1.804982 c 0,-0.415425 -0.164402,-0.813916 -0.4572,-1.108566 -0.29289,-0.294612 -0.690451,-0.461358 -1.105876,-0.463815 z m -8.671353,6.168571 c 0,0.513861 0.416541,0.930403 0.930402,0.930403 0.513862,0 0.930403,-0.416542 0.930403,-0.930403 0,-0.513861 -0.416541,-0.930403 -0.930403,-0.930403 -0.513861,0 -0.930402,0.416542 -0.930402,0.930403 z m 0.272515,-7.170717 c 0.17445,-0.174478 0.411145,-0.272506 0.657887,-0.272506 0.246743,0 0.483438,0.09803 0.657888,0.272506 0.174451,0.174488 0.272515,0.411136 0.272515,0.657897 v 3.721612 c 0,0.246742 -0.09806,0.483437 -0.272515,0.657888 -0.17445,0.17445 -0.411145,0.272515 -0.657888,0.272515 -0.246742,0 -0.483437,-0.09806 -0.657887,-0.272515 -0.174451,-0.174451 -0.272515,-0.411146 -0.272515,-0.657888 v -3.721612 c 0,-0.246761 0.09806,-0.483409 0.272515,-0.657897 z"
           fill="#ff5c00"
           id="path1327"
           style="fill:#ffffff;fill-rule:evenodd;stroke-width:0.930403" />
      </g>
      <g
         transform="matrix(1.0301811,0,0,1.0301811,-22.455757,191.57073)"
         id="g1335">
        <path
           sodipodi:nodetypes="sssssssss"
           fill="#abb0b4"
           d="m -14.971266,-27.999924 c -2.239329,0 -4.041016,1.801687 -4.041016,4.041016 v 15.2695296 c 0,2.239329 1.801687,4.042969 4.041016,4.042969 H 0.24357784 c 2.23932896,0 4.04101496,-1.80364 4.04101496,-4.042969 V -23.958908 c 0,-2.239329 -1.801686,-4.041016 -4.04101496,-4.041016 z"
           id="path1331"
           style="fill:#fdb400;fill-opacity:1" />
        <path
           d="M 1.3757524,-12.347449 -4.9755293,-22.88044 c -0.2567838,-0.401771 -0.6106173,-0.73241 -1.0288745,-0.961438 -0.4182571,-0.229035 -0.8874404,-0.349088 -1.3642421,-0.349088 -0.4768023,0 -0.9459857,0.120053 -1.3642425,0.349088 -0.418216,0.229028 -0.7720578,0.559667 -1.0288748,0.961438 l -6.3512808,10.532991 c -0.224366,0.374039 -0.346307,0.800494 -0.353577,1.236554 -0.0073,0.436143 0.100403,0.866407 0.312174,1.2476494 0.244842,0.4291882 0.599239,0.7856712 1.026969,1.0330151 0.42773,0.2472611 0.913467,0.3766053 1.407551,0.3747008 h 12.7025628 c 0.4908787,0.0053 0.97438763,-0.1190762 1.40183637,-0.3603752 C 0.81192088,-9.0572868 1.1680729,-9.4070623 1.4171558,-9.8301226 1.6351861,-10.215339 1.74623,-10.651814 1.738943,-11.094416 c -0.00729,-0.44252 -0.1326565,-0.875102 -0.3631906,-1.253033 z m -8.7443983,0.579648 c -0.1637918,0 -0.3238582,-0.04853 -0.4600753,-0.13953 -0.1361344,-0.09101 -0.2422928,-0.220348 -0.3049775,-0.371636 -0.062684,-0.151288 -0.07908,-0.317813 -0.047117,-0.478458 0.031963,-0.160562 0.1107955,-0.308124 0.2266422,-0.423971 0.1157638,-0.115764 0.2633255,-0.194679 0.4239716,-0.22656 0.1606452,-0.03197 0.3271696,-0.01557 0.4784577,0.04711 0.151288,0.0626 0.2806322,0.16876 0.3716369,0.304977 0.091005,0.136134 0.1395295,0.296283 0.1395295,0.459992 0,0.219687 -0.087278,0.430264 -0.2425412,0.585527 -0.1552627,0.155345 -0.3659232,0.242541 -0.5855269,0.242541 z m 0.8280681,-3.312272 c 0,0.219686 -0.087278,0.430264 -0.2425412,0.585526 -0.1552627,0.155346 -0.3659232,0.242541 -0.5855269,0.242541 -0.2196044,0 -0.4302649,-0.0872 -0.5855276,-0.242541 -0.1552628,-0.155262 -0.2425412,-0.36584 -0.2425412,-0.585526 v -3.312239 c 0,-0.219621 0.087278,-0.430239 0.2425412,-0.585536 0.1552627,-0.155286 0.3659232,-0.242532 0.5855276,-0.242532 0.2196037,0 0.4302642,0.08725 0.5855269,0.242532 0.1552628,0.155297 0.2425412,0.365915 0.2425412,0.585536 z"
           fill="#fdb400"
           id="path1333"
           style="fill:#ffffff;fill-rule:nonzero;stroke-width:0.828068" />
      </g>
    </g>
  </g>
</svg>
