<?xml version="1.0" encoding="UTF-8" standalone="no"?>
<svg
   xmlns:dc="http://purl.org/dc/elements/1.1/"
   xmlns:cc="http://creativecommons.org/ns#"
   xmlns:rdf="http://www.w3.org/1999/02/22-rdf-syntax-ns#"
   xmlns:svg="http://www.w3.org/2000/svg"
   xmlns="http://www.w3.org/2000/svg"
   xmlns:sodipodi="http://sodipodi.sourceforge.net/DTD/sodipodi-0.dtd"
   xmlns:inkscape="http://www.inkscape.org/namespaces/inkscape"
   inkscape:version="1.0 (4035a4fb49, 2020-05-01)"
   sodipodi:docname="meterv2_3.svg"
   width="31.951897mm"
   height="9.5928192mm"
   viewBox="0 0 31.951897 9.5928192"
   version="1.1"
   id="svg2006">
  <sodipodi:namedview
     inkscape:current-layer="svg2006"
     inkscape:window-maximized="1"
     inkscape:window-y="27"
     inkscape:window-x="0"
     inkscape:cy="9.1170285"
     inkscape:cx="38.21824"
     inkscape:zoom="7.7909517"
     fit-margin-bottom="0"
     fit-margin-right="0"
     fit-margin-left="0"
     fit-margin-top="0"
     showgrid="false"
     id="namedview20"
     inkscape:window-height="949"
     inkscape:window-width="1920"
     inkscape:pageshadow="2"
     inkscape:pageopacity="0"
     guidetolerance="10"
     gridtolerance="10"
     objecttolerance="10"
     borderopacity="1"
     bordercolor="#666666"
     pagecolor="#ffffff" />
  <defs
     id="defs2000" />
  <metadata
     id="metadata2003">
    <rdf:RDF>
      <cc:Work
         rdf:about="">
        <dc:format>image/svg+xml</dc:format>
        <dc:type
           rdf:resource="http://purl.org/dc/dcmitype/StillImage" />
        <dc:title></dc:title>
      </cc:Work>
    </rdf:RDF>
  </metadata>
  <g
     id="g1457"
     transform="matrix(0.26458333,0,0,0.26458333,26.440682,-30.827442)">
    <g
       transform="translate(-0.45371477,114.34807)"
       id="g1235">
      <path
         style="fill:#fdb400;fill-opacity:1;stroke-width:1.37357"
         id="path1191"
         d="m -35.480171,4.2543725 c -3.075886,0 -5.550638,2.4747518 -5.550638,5.5506375 v 20.973841 c 0,3.075885 2.474752,5.553319 5.550638,5.553319 h 20.898725 c 3.075886,0 5.550637,-2.477434 5.550637,-5.553319 V 9.80501 c 0,-3.0758857 -2.474751,-5.5506375 -5.550637,-5.5506375 z"
         fill="#abb0b4" />
      <path
         style="fill:#ffffff;fill-rule:nonzero;stroke-width:0.85306"
         id="path1193"
         fill="#fdb400"
         d="m -16.027442,24.388979 -6.54297,-10.850888 c -0.264534,-0.413897 -0.629047,-0.754515 -1.059927,-0.990455 -0.430881,-0.235948 -0.914225,-0.359624 -1.405417,-0.359624 -0.491192,0 -0.974536,0.123676 -1.405417,0.359624 -0.430838,0.23594 -0.795359,0.576558 -1.059927,0.990455 l -6.542969,10.850888 c -0.231138,0.385328 -0.356759,0.824654 -0.364249,1.273875 -0.0075,0.449306 0.103434,0.892556 0.321596,1.285305 0.252232,0.442141 0.617325,0.809383 1.057964,1.064192 0.440639,0.254724 0.941037,0.387972 1.450033,0.38601 h 13.08594 c 0.505694,0.0055 1.003795,-0.12267 1.444145,-0.371252 0.44035,-0.248667 0.807251,-0.608999 1.063851,-1.044828 0.224611,-0.396842 0.339006,-0.84649 0.331499,-1.302451 -0.0075,-0.455875 -0.13666,-0.901513 -0.374152,-1.290851 z m -9.008314,0.597143 c -0.168735,0 -0.333632,-0.04999 -0.473961,-0.143741 -0.140243,-0.09376 -0.249605,-0.226999 -0.314182,-0.382853 -0.06458,-0.155854 -0.08147,-0.327405 -0.04854,-0.492898 0.03293,-0.165408 0.11414,-0.317424 0.233483,-0.436767 0.119257,-0.119258 0.271273,-0.200555 0.436767,-0.233398 0.165494,-0.03294 0.337044,-0.01604 0.492898,0.04853 0.155854,0.06449 0.289102,0.173853 0.382854,0.314182 0.09375,0.140242 0.14374,0.305225 0.14374,0.473875 0,0.226317 -0.08991,0.443249 -0.249861,0.603198 -0.159949,0.160034 -0.376967,0.249862 -0.603199,0.249862 z m 0.85306,-3.41224 c 0,0.226316 -0.08991,0.44325 -0.249861,0.603198 -0.159949,0.160034 -0.376967,0.249861 -0.603199,0.249861 -0.226232,0 -0.443251,-0.08983 -0.603199,-0.249861 -0.159949,-0.159948 -0.249862,-0.376882 -0.249862,-0.603198 v -3.412206 c 0,-0.22625 0.08991,-0.443224 0.249862,-0.603208 0.159948,-0.159973 0.376967,-0.249852 0.603199,-0.249852 0.226232,0 0.44325,0.08988 0.603199,0.249852 0.159949,0.159984 0.249861,0.376958 0.249861,0.603208 z" />
    </g>
    <g
       id="g1297"
       transform="matrix(1.030181,0,0,1.030181,-2.5332658,151.45716)">
      <path
         style="fill:#dc0e01;fill-opacity:1"
         fill="#abb0b4"
         d="m -88.389454,-27.999924 c -2.239329,0 -4.041016,1.801687 -4.041016,4.041016 v 15.2695299 c 0,2.239329 1.801687,4.0429691 4.041016,4.0429691 h 15.214845 c 2.239329,0 4.041015,-1.8036401 4.041015,-4.0429691 V -23.958908 c 0,-2.239329 -1.801686,-4.041016 -4.041015,-4.041016 z"
         id="path1293" />
      <path
         style="fill:#ffffff"
         id="path1295"
         fill="#dc0e01"
         d="m -70.969444,-21.999832 c -0.1019,-0.40727 -0.6095,-0.54902 -0.9062,-0.25214 l -2.4094,2.4095 c -0.5351,0.53483 -1.4025,0.53483 -1.9375,0 l -1.1055,-1.10553 c -0.535,-0.53499 -0.535,-1.40237 0,-1.93745 l 2.3802,-2.38018 c 0.2988,-0.298842 0.1534,-0.811343 -0.2579,-0.907659 -0.5633,-0.131612 -1.1586,-0.180199 -1.7725,-0.131203 -2.6389,0.210546 -5.06767,2.684952 -5.23191,5.327212 -0.06221,1.00214 0.14028,1.94951 0.53483,2.78871 l -8.423075,7.238289 c -0.378844,0.3255 -0.643721,0.6281 -0.664702,1.1271001 -0.02123,0.499 0.203324,1.1497 0.553294,1.506 l 1.427443,1.4536 c 0.35336,0.36 0.84129,0.5557 1.34552,0.5395 0.50428,-0.0164 0.97863,-0.2428 1.30819,-0.6246 l 7.29581,-8.4530991 c 0.8146,0.3636 1.7263,0.549 2.689,0.489 2.6601,-0.166 5.135,-2.61425 5.3287,-5.27226 0.0458,-0.62967 -0.0106,-1.23943 -0.1543,-1.81479 z" />
    </g>
    <g
       id="g1303"
       transform="matrix(1.0301811,0,0,1.0301811,-2.6758133,151.45716)">
      <path
         style="fill:#ff5c00;fill-opacity:1"
         fill="#abb0b4"
         d="m -60.940895,-27.999924 c -2.239329,0 -4.041016,1.801687 -4.041016,4.041016 v 15.26953 c 0,2.239329 1.801687,4.0429689 4.041016,4.0429689 h 15.214844 c 2.239329,0 4.041015,-1.8036399 4.041015,-4.0429689 v -15.26953 c 0,-2.239329 -1.801686,-4.041016 -4.041015,-4.041016 z"
         id="path1299" />
      <path
         style="fill:#ffffff;fill-rule:evenodd;stroke-width:0.930403"
         id="path1301"
         fill="#ff5c00"
         d="m -45.592525,-18.770125 h -1.014139 c -0.130256,0 -0.223296,-0.102344 -0.27912,-0.241904 -0.03322,-0.05126 -0.05089,-0.111035 -0.05089,-0.172125 0,-0.06109 0.01768,-0.120869 0.05089,-0.172124 l 0.753626,-0.688499 c 0.147655,-0.142072 0.265072,-0.312606 0.344993,-0.501301 0.08002,-0.188694 0.120859,-0.391634 0.120208,-0.596574 -1.86e-4,-0.206186 -0.0414,-0.410261 -0.121324,-0.600351 -0.07983,-0.190091 -0.196781,-0.362374 -0.343877,-0.506828 l -1.24674,-1.274652 c -0.144398,-0.14544 -0.316151,-0.260866 -0.505395,-0.339625 -0.189244,-0.07877 -0.392164,-0.119324 -0.597132,-0.119324 -0.204968,0 -0.407889,0.04056 -0.597133,0.119324 -0.189244,0.07876 -0.360996,0.194185 -0.505394,0.339625 l -0.716411,0.688498 c -0.05694,0.03647 -0.123092,0.05586 -0.190732,0.05586 -0.06764,0 -0.133792,-0.01939 -0.190733,-0.05586 -0.0562,-0.02095 -0.105228,-0.05743 -0.141514,-0.10521 -0.03619,-0.04777 -0.05815,-0.104856 -0.06317,-0.164607 v -0.958314 c 1.86e-4,-0.406614 -0.158076,-0.7973 -0.44129,-1.089139 -0.283122,-0.29183 -0.668867,-0.461833 -1.075267,-0.473938 h -1.804981 c -0.415425,-9e-6 -0.813916,0.164374 -1.108566,0.457246 -0.294612,0.292873 -0.461358,0.690424 -0.463815,1.105831 v 1.014139 c 0,0.130256 -0.102344,0.223296 -0.241904,0.27912 -0.05126,0.03324 -0.111035,0.05093 -0.172125,0.05093 -0.06109,0 -0.120869,-0.01769 -0.172124,-0.05093 l -0.688499,-0.753626 c -0.294677,-0.292918 -0.691726,-0.459749 -1.107179,-0.465201 -0.204772,4e-4 -0.407405,0.04177 -0.595951,0.121659 -0.188546,0.07989 -0.3592,0.196697 -0.501924,0.343542 l -1.274652,1.24674 c -0.149692,0.144873 -0.268719,0.318374 -0.350008,0.510177 -0.08129,0.191802 -0.123176,0.397989 -0.123176,0.606306 0,0.208317 0.04189,0.414504 0.123176,0.606306 0.08129,0.191803 0.200316,0.365304 0.350008,0.510177 l 0.688498,0.688499 c 0.03647,0.05693 0.05586,0.12312 0.05586,0.190732 0,0.06761 -0.01939,0.133801 -0.05586,0.190733 -0.02095,0.05618 -0.05743,0.105256 -0.10521,0.141495 -0.04777,0.03624 -0.104856,0.05815 -0.164607,0.06319 h -0.958314 c -0.414551,0 -0.81213,0.164682 -1.105263,0.457814 -0.293133,0.293114 -0.457814,0.690675 -0.457814,1.105263 v 1.758461 c -9e-6,0.415425 0.164374,0.813917 0.457246,1.108575 0.292873,0.294566 0.690424,0.461387 1.105831,0.463806 h 1.014139 c 0.130256,0 0.223296,0.102345 0.27912,0.241905 0.03324,0.05127 0.05093,0.110997 0.05093,0.172124 0,0.06113 -0.01769,0.12086 -0.05093,0.172125 l -0.753626,0.688498 c -0.292918,0.294659 -0.459749,0.691754 -0.465201,1.107179 -3.16e-4,0.206271 0.04068,0.410494 0.12058,0.600668 0.07989,0.190175 0.197078,0.362392 0.344621,0.506512 l 1.24674,1.2653472 c 0.144417,0.145422 0.316188,0.260885 0.505413,0.339597 0.189216,0.078805 0.392156,0.1193707 0.597114,0.1193707 0.204959,0 0.407898,-0.040566 0.597114,-0.1193707 0.189225,-0.078712 0.360996,-0.194175 0.505413,-0.339597 l 0.716411,-0.688498 c 0.05693,-0.036472 0.12312,-0.055824 0.190732,-0.055824 0.06761,0 0.133801,0.019352 0.190733,0.055824 0.05618,0.020934 0.105256,0.057406 0.141495,0.1052286 0.03624,0.04773 0.05815,0.1048563 0.06319,0.1645882 v 1.014139 c 0.01447,0.4048182 0.185513,0.7881442 0.477092,1.0693118 0.291607,0.2811677 0.680888,0.4382197 1.085985,0.4379406 h 1.758461 c 0.415425,0 0.813916,-0.1644022 1.108575,-0.4571999 0.294565,-0.2928908 0.461387,-0.6904518 0.463806,-1.1058767 v -1.014139 c 0,-0.1302564 0.102344,-0.2232966 0.241904,-0.2791208 0.05127,-0.033215 0.110997,-0.050893 0.172125,-0.050893 0.06113,0 0.120859,0.017678 0.172124,0.050893 l 0.707107,0.7164101 c 0.294658,0.2928908 0.691754,0.459712 1.107179,0.4652014 0.204781,-3.722e-4 0.407423,-0.041775 0.595923,-0.1216967 0.188592,-0.079829 0.359228,-0.1966871 0.501952,-0.3435047 l 1.24674,-1.2467401 c 0.145422,-0.144398 0.260885,-0.31615 0.339597,-0.505394 0.0788,-0.189244 0.11937,-0.392165 0.11937,-0.597133 0,-0.204967 -0.04057,-0.407888 -0.11937,-0.597132 -0.07871,-0.189244 -0.194175,-0.360997 -0.339597,-0.505395 l -0.679194,-0.679194 c -0.03322,-0.05126 -0.05089,-0.110997 -0.05089,-0.172125 0,-0.06113 0.01768,-0.120859 0.05089,-0.172124 0.02093,-0.0562 0.05741,-0.105229 0.105228,-0.141514 0.04773,-0.03619 0.104857,-0.05815 0.164589,-0.06317 h 1.014139 c 0.403236,-0.01442 0.785166,-0.184127 1.066147,-0.473761 0.280889,-0.289542 0.438964,-0.676589 0.441104,-1.080012 v -1.804982 c 0,-0.415425 -0.164402,-0.813916 -0.4572,-1.108566 -0.29289,-0.294612 -0.690451,-0.461358 -1.105876,-0.463815 z m -8.671353,6.168571 c 0,0.513861 0.416541,0.930403 0.930402,0.930403 0.513862,0 0.930403,-0.416542 0.930403,-0.930403 0,-0.513861 -0.416541,-0.930403 -0.930403,-0.930403 -0.513861,0 -0.930402,0.416542 -0.930402,0.930403 z m 0.272515,-7.170717 c 0.17445,-0.174478 0.411145,-0.272506 0.657887,-0.272506 0.246743,0 0.483438,0.09803 0.657888,0.272506 0.174451,0.174488 0.272515,0.411136 0.272515,0.657897 v 3.721612 c 0,0.246742 -0.09806,0.483437 -0.272515,0.657888 -0.17445,0.17445 -0.411145,0.272515 -0.657888,0.272515 -0.246742,0 -0.483437,-0.09806 -0.657887,-0.272515 -0.174451,-0.174451 -0.272515,-0.411146 -0.272515,-0.657888 v -3.721612 c 0,-0.246761 0.09806,-0.483409 0.272515,-0.657897 z"
         clipRule="evenodd"
         fillRule="evenodd" />
    </g>
    <g
       id="g1315"
       transform="matrix(1.0301811,0,0,1.0301811,-25.129936,151.45716)">
      <path
         style="fill:#58cc00;fill-opacity:1"
         id="path1311"
         d="m 23.241368,-27.999924 c -2.239329,0 -4.041016,1.801687 -4.041016,4.041016 v 15.2695297 c 0,2.239329 1.801687,4.042969 4.041016,4.042969 h 15.214844 c 2.239329,0 4.041015,-1.80364 4.041015,-4.042969 V -23.958908 c 0,-2.239329 -1.801686,-4.041016 -4.041015,-4.041016 z"
         fill="#abb0b4" />
      <path
         style="fill:#ffffff;stroke-width:0.803071"
         id="path1313"
         fill="#58cc00"
         d="m 30.84879,-24.353884 c -1.588313,0 -3.140979,0.470993 -4.461621,1.353415 -1.320642,0.882431 -2.349954,2.136651 -2.957781,3.604078 -0.607829,1.467395 -0.766861,3.082129 -0.456996,4.639926 0.309864,1.557797 1.074717,2.988708 2.197836,4.111883 1.123111,1.1230941 2.554046,1.8879395 4.111851,2.1978442 1.557797,0.3098248 3.172531,0.1508168 4.639902,-0.4570277 1.467452,-0.6078444 2.721687,-1.6371405 3.604102,-2.9577905 0.882413,-1.32065 1.353414,-2.873306 1.353414,-4.46162 0,-1.054593 -0.207754,-2.09889 -0.611297,-3.073215 -0.403543,-0.974335 -0.995085,-1.859632 -1.740816,-2.605355 -0.745731,-0.745715 -1.631037,-1.337258 -2.605403,-1.740841 -0.974286,-0.403574 -2.018599,-0.611297 -3.073191,-0.611297 z m 3.453204,6.111368 -3.670033,4.818426 c -0.07485,0.09717 -0.170894,0.175952 -0.280834,0.23024 -0.110021,0.05429 -0.230963,0.08263 -0.353592,0.08296 -0.121987,6.43e-4 -0.242527,-0.0265 -0.352468,-0.07934 -0.10986,-0.05292 -0.206309,-0.130098 -0.281958,-0.225824 l -1.959493,-2.49755 c -0.06485,-0.08328 -0.112671,-0.178603 -0.140706,-0.280352 -0.02804,-0.10183 -0.03575,-0.208156 -0.0227,-0.312877 0.01305,-0.1048 0.04661,-0.205987 0.09876,-0.297778 0.05216,-0.09179 0.121875,-0.172419 0.205186,-0.237307 0.168267,-0.130982 0.381667,-0.189766 0.593268,-0.163425 0.104769,0.01309 0.205948,0.04666 0.297755,0.09878 0.09181,0.05212 0.172435,0.121907 0.237291,0.205185 l 1.309006,1.670387 3.035607,-4.015354 c 0.06432,-0.08437 0.144633,-0.155242 0.236343,-0.208566 0.09179,-0.05333 0.193059,-0.08807 0.298261,-0.102239 0.105123,-0.01417 0.212011,-0.0075 0.314563,0.01966 0.102552,0.02714 0.19876,0.07423 0.283162,0.138562 0.0844,0.06433 0.155234,0.144649 0.208558,0.236367 0.05332,0.09173 0.0881,0.193051 0.102231,0.298196 0.01421,0.105147 0.0075,0.212052 -0.01968,0.31462 -0.02714,0.102568 -0.0742,0.198776 -0.13853,0.283146 z" />
    </g>
  </g>
</svg>
