<?xml version="1.0" encoding="UTF-8" standalone="no"?>
<svg
   xmlns:dc="http://purl.org/dc/elements/1.1/"
   xmlns:cc="http://creativecommons.org/ns#"
   xmlns:rdf="http://www.w3.org/1999/02/22-rdf-syntax-ns#"
   xmlns:svg="http://www.w3.org/2000/svg"
   xmlns="http://www.w3.org/2000/svg"
   id="svg3564"
   version="1.1"
   viewBox="0 0 8.4666662 8.4872503"
   height="8.4872503mm"
   width="8.4666662mm">
  <defs
     id="defs3558" />
  <metadata
     id="metadata3561">
    <rdf:RDF>
      <cc:Work
         rdf:about="">
        <dc:format>image/svg+xml</dc:format>
        <dc:type
           rdf:resource="http://purl.org/dc/dcmitype/StillImage" />
        <dc:title></dc:title>
      </cc:Work>
    </rdf:RDF>
  </metadata>
  <g
     transform="translate(-108.40357,-106.88138)"
     id="layer1">
    <g
       id="g1235"
       transform="matrix(0.26458333,0,0,0.26458333,119.25964,105.75574)">
      <path
         fill="#abb0b4"
         d="m -35.480171,4.2543725 c -3.075886,0 -5.550638,2.4747518 -5.550638,5.5506375 v 20.973841 c 0,3.075885 2.474752,5.553319 5.550638,5.553319 h 20.898725 c 3.075886,0 5.550637,-2.477434 5.550637,-5.553319 V 9.80501 c 0,-3.0758857 -2.474751,-5.5506375 -5.550637,-5.5506375 z"
         id="path1191"
         style="fill:#fdb400;fill-opacity:1;stroke-width:1.37357" />
      <path
         d="m -16.027442,24.388979 -6.54297,-10.850888 c -0.264534,-0.413897 -0.629047,-0.754515 -1.059927,-0.990455 -0.430881,-0.235948 -0.914225,-0.359624 -1.405417,-0.359624 -0.491192,0 -0.974536,0.123676 -1.405417,0.359624 -0.430838,0.23594 -0.795359,0.576558 -1.059927,0.990455 l -6.542969,10.850888 c -0.231138,0.385328 -0.356759,0.824654 -0.364249,1.273875 -0.0075,0.449306 0.103434,0.892556 0.321596,1.285305 0.252232,0.442141 0.617325,0.809383 1.057964,1.064192 0.440639,0.254724 0.941037,0.387972 1.450033,0.38601 h 13.08594 c 0.505694,0.0055 1.003795,-0.12267 1.444145,-0.371252 0.44035,-0.248667 0.807251,-0.608999 1.063851,-1.044828 0.224611,-0.396842 0.339006,-0.84649 0.331499,-1.302451 -0.0075,-0.455875 -0.13666,-0.901513 -0.374152,-1.290851 z m -9.008314,0.597143 c -0.168735,0 -0.333632,-0.04999 -0.473961,-0.143741 -0.140243,-0.09376 -0.249605,-0.226999 -0.314182,-0.382853 -0.06458,-0.155854 -0.08147,-0.327405 -0.04854,-0.492898 0.03293,-0.165408 0.11414,-0.317424 0.233483,-0.436767 0.119257,-0.119258 0.271273,-0.200555 0.436767,-0.233398 0.165494,-0.03294 0.337044,-0.01604 0.492898,0.04853 0.155854,0.06449 0.289102,0.173853 0.382854,0.314182 0.09375,0.140242 0.14374,0.305225 0.14374,0.473875 0,0.226317 -0.08991,0.443249 -0.249861,0.603198 -0.159949,0.160034 -0.376967,0.249862 -0.603199,0.249862 z m 0.85306,-3.41224 c 0,0.226316 -0.08991,0.44325 -0.249861,0.603198 -0.159949,0.160034 -0.376967,0.249861 -0.603199,0.249861 -0.226232,0 -0.443251,-0.08983 -0.603199,-0.249861 -0.159949,-0.159948 -0.249862,-0.376882 -0.249862,-0.603198 v -3.412206 c 0,-0.22625 0.08991,-0.443224 0.249862,-0.603208 0.159948,-0.159973 0.376967,-0.249852 0.603199,-0.249852 0.226232,0 0.44325,0.08988 0.603199,0.249852 0.159949,0.159984 0.249861,0.376958 0.249861,0.603208 z"
         fill="#fdb400"
         id="path1193"
         style="fill:#ffffff;fill-rule:nonzero;stroke-width:0.85306" />
    </g>
  </g>
</svg>
