<svg width="20" height="20" viewBox="0 0 20 20" fill="none" xmlns="http://www.w3.org/2000/svg">
<rect x="0.625" width="19.34" height="19.34" rx="5" fill="#FF7121"/>
<path d="M11.1014 6.11397L10.9544 10.6555H9.64084L9.49382 6.11397H11.1014ZM10.296 12.7521C10.068 12.7521 9.87202 12.6711 9.70796 12.5092C9.54602 12.3473 9.46506 12.1513 9.46506 11.9211C9.46506 11.6953 9.54602 11.5025 9.70796 11.3427C9.87202 11.1807 10.068 11.0998 10.296 11.0998C10.5155 11.0998 10.7083 11.1807 10.8745 11.3427C11.0428 11.5025 11.127 11.6953 11.127 11.9211C11.127 12.0746 11.0876 12.2141 11.0087 12.3398C10.932 12.4655 10.8308 12.5657 10.7051 12.6402C10.5815 12.7148 10.4452 12.7521 10.296 12.7521Z" fill="#FF7121"/>
<path d="M9.91768 15.0583C9.7802 15.0583 9.64249 15.0614 9.50501 15.0583C9.28486 15.0526 9.12541 14.9199 9.08148 14.7009C9.02266 14.406 8.96526 14.1106 8.91612 13.814C8.88069 13.5972 8.77439 13.4519 8.56439 13.383C8.46022 13.3489 8.36172 13.2984 8.26038 13.2556C8.10354 13.1891 7.95472 13.2005 7.81322 13.2987C7.57039 13.4669 7.32685 13.6339 7.08379 13.8018C6.82584 13.98 6.63733 13.9617 6.41387 13.7366C6.24687 13.5698 6.07939 13.4011 5.9138 13.232C5.72294 13.0366 5.70404 12.8384 5.85616 12.6125C6.02325 12.363 6.19199 12.1147 6.36238 11.8676C6.47127 11.7103 6.48852 11.5493 6.40797 11.3747C6.3586 11.267 6.31584 11.1562 6.27309 11.0457C6.20931 10.8808 6.09451 10.7812 5.92018 10.7493C5.6268 10.6957 5.33436 10.6376 5.04098 10.584C4.76177 10.533 4.62594 10.3722 4.625 10.0837C4.625 9.8378 4.625 9.59218 4.625 9.34632C4.62642 9.07639 4.75705 8.92082 5.02208 8.86984C5.31121 8.81433 5.6001 8.75692 5.88971 8.70498C6.08553 8.66996 6.21687 8.56633 6.28277 8.37431C6.31986 8.26615 6.36734 8.16132 6.41364 8.0565C6.44954 7.98327 6.46465 7.90145 6.45732 7.82009C6.44998 7.73873 6.42047 7.66101 6.37206 7.59551C6.20277 7.34742 6.03435 7.09878 5.86679 6.84959C5.70144 6.60349 5.71798 6.41052 5.9242 6.20111C6.09317 6.02958 6.26277 5.8586 6.43301 5.68818C6.63497 5.48663 6.82867 5.46924 7.06678 5.6322C7.30489 5.79515 7.54866 5.96001 7.78582 6.12916C7.94952 6.24589 8.11511 6.26257 8.29558 6.1749C8.38787 6.13064 8.4825 6.09151 8.57904 6.05769C8.77794 5.98765 8.88045 5.84637 8.91494 5.63958C8.96384 5.34703 9.02006 5.05542 9.07746 4.7643C9.12612 4.51796 9.28391 4.38502 9.53052 4.38312C9.78989 4.37978 10.0493 4.37978 10.3086 4.38312C10.5548 4.38598 10.713 4.51653 10.7633 4.7643C10.8255 5.07043 10.8815 5.378 10.9372 5.6858C10.9698 5.86638 11.0674 5.9917 11.2398 6.04578C11.3874 6.09199 11.4573 6.16918 11.4869 6.33666C11.661 7.32559 12.4436 8.08866 13.4272 8.25876C13.4704 8.26639 13.5283 8.30927 13.542 8.34882C13.619 8.57276 13.7713 8.68235 14.0016 8.71594C14.2809 8.75715 14.5575 8.81743 14.8343 8.87341C15.0852 8.9244 15.2123 9.08187 15.2123 9.34107C15.2137 9.59075 15.2123 9.84137 15.2123 10.0903C15.2123 10.3748 15.0833 10.5304 14.8048 10.584C14.5119 10.6404 14.219 10.6974 13.9253 10.7507C13.7456 10.7826 13.6294 10.8846 13.5642 11.0535C13.52 11.1676 13.473 11.2808 13.4246 11.3933C13.3537 11.556 13.3686 11.7089 13.468 11.855C13.6372 12.1032 13.8058 12.3516 13.974 12.6002C14.1377 12.8432 14.1188 13.0395 13.9131 13.2486C13.7413 13.4233 13.5701 13.5979 13.3962 13.7699C13.2072 13.9562 13.0072 13.9748 12.7903 13.8273C12.543 13.6589 12.2957 13.4905 12.0512 13.3177C11.8913 13.205 11.7288 13.1884 11.5516 13.2701C11.4415 13.3218 11.3274 13.3654 11.2148 13.4109C11.0648 13.4721 10.9717 13.581 10.9412 13.7418C10.8852 14.0372 10.8295 14.3329 10.7759 14.6288C10.7206 14.9335 10.5734 15.0612 10.2699 15.0623C10.1518 15.0623 10.0337 15.0623 9.91556 15.0623L9.91768 15.0583ZM9.91391 11.6639C10.1667 11.6651 10.4173 11.616 10.6513 11.5195C10.8852 11.4229 11.098 11.2808 11.2775 11.1012C11.4569 10.9216 11.5995 10.7081 11.6971 10.4729C11.7946 10.2376 11.8452 9.98532 11.8459 9.73035C11.8477 9.47531 11.7996 9.2224 11.7044 8.98612C11.6092 8.74983 11.4687 8.53481 11.291 8.35336C11.1133 8.1719 10.9018 8.02758 10.6687 7.92865C10.4356 7.82971 10.1855 7.77812 9.93257 7.77681C8.86699 7.77204 7.99889 8.63446 7.99393 9.70486C7.99147 9.96091 8.03928 10.2149 8.13462 10.4522C8.22996 10.6896 8.37093 10.9055 8.54941 11.0876C8.7279 11.2697 8.94036 11.4144 9.17454 11.5133C9.40873 11.6122 9.66002 11.6634 9.91391 11.6639Z" fill="white"/>
<path fill-rule="evenodd" clip-rule="evenodd" d="M12.4949 4.55496C12.1458 4.90841 11.9497 5.38698 11.9497 5.88589C11.9491 6.38478 12.1446 6.86358 12.4933 7.21744C12.842 7.5713 13.3155 7.7714 13.8101 7.77392C14.0561 7.77464 14.2998 7.7264 14.5272 7.63196C14.7547 7.53751 14.9614 7.39873 15.1356 7.22355C15.3098 7.04838 15.448 6.84026 15.5422 6.61113C15.6365 6.38199 15.685 6.13635 15.685 5.88827C15.6853 5.64018 15.6371 5.39447 15.5431 5.1652C15.4492 4.93593 15.3112 4.72762 15.1373 4.55221C14.9633 4.3768 14.7568 4.23773 14.5294 4.14297C14.3021 4.04821 14.0585 3.99963 13.8125 4C13.3178 4.00196 12.844 4.2015 12.4949 4.55496ZM13.5375 5.00489L13.5271 5.00298C13.5305 4.9817 13.5329 4.96014 13.5353 4.93866C13.5408 4.88944 13.5462 4.84056 13.5633 4.79595C13.6119 4.66873 13.7461 4.60775 13.8826 4.63729C13.945 4.65005 14.0009 4.6846 14.0405 4.73485C14.0801 4.7851 14.1008 4.84782 14.099 4.91197C14.083 5.2436 14.0584 5.57499 14.0315 5.9059C14.0225 6.01597 13.9297 6.08958 13.8219 6.09173C13.7029 6.09411 13.6134 6.02216 13.6018 5.89185C13.5829 5.68108 13.5688 5.46984 13.5547 5.25863C13.5491 5.17403 13.5435 5.08944 13.5375 5.00489ZM14.1008 6.72158C14.1031 6.73721 14.1042 6.75329 14.1042 6.76975V6.76904C14.1046 6.90657 14.027 7.01472 13.9135 7.05302C13.8847 7.06275 13.8535 7.06798 13.8208 7.06802C13.6589 7.06826 13.5373 6.94009 13.5373 6.77189C13.5373 6.64206 13.6108 6.53367 13.7179 6.49075C13.7502 6.4776 13.7857 6.47037 13.8231 6.4702C13.9677 6.46955 14.0803 6.57558 14.1008 6.72158Z" fill="white"/>
</svg>
