<svg width="20" height="20" viewBox="0 0 20 20" fill="none" xmlns="http://www.w3.org/2000/svg">
<rect x="0.625" width="19.3421" height="19.3421" rx="5" fill="#E00030"/>
<path fill-rule="evenodd" clip-rule="evenodd" d="M16.1062 7.22254C16.0496 7.4562 16.0151 7.69778 15.9324 7.92212C15.6526 8.68088 15.1606 9.26042 14.384 9.56229C13.8462 9.77135 13.3021 9.7222 12.772 9.51597C12.6743 9.47794 12.6211 9.48857 12.5478 9.56098C10.7636 11.3224 8.97551 13.0799 7.19107 14.8411C6.88754 15.1406 6.53121 15.3157 6.10081 15.2989C5.50636 15.2756 5.06617 14.9916 4.82692 14.4552C4.58959 13.9231 4.68424 13.4222 5.05735 12.9732C5.10123 12.9204 5.15256 12.8735 5.2017 12.8251C6.97499 11.0788 8.74781 9.332 10.5239 7.58844C10.6048 7.50902 10.6149 7.4491 10.5745 7.34541C10.1443 6.24296 10.5431 5.16723 11.62 4.51312C11.9954 4.28505 12.4015 4.14153 12.8423 4.09769C12.8735 4.0946 12.9036 4.08082 12.9343 4.07202C13.0827 4.07202 13.2311 4.07202 13.3795 4.07202C13.6013 4.11457 13.823 4.15714 14.0448 4.19969C14.0476 4.21473 14.0504 4.2298 14.0532 4.24484C14.0146 4.27708 13.9736 4.30686 13.9379 4.34193C13.423 4.84774 12.9095 5.35498 12.3936 5.85969C12.3365 5.91555 12.3051 5.96585 12.3272 6.05015C12.4403 6.48169 12.5456 6.91532 12.662 7.34598C12.675 7.39401 12.7349 7.45203 12.784 7.46485C13.2168 7.57786 13.6526 7.67956 14.086 7.79002C14.1734 7.81229 14.2294 7.79437 14.2928 7.73131C14.8077 7.21906 15.327 6.71114 15.8428 6.19979C15.8774 6.16541 15.8945 6.11382 15.9198 6.07023C15.9393 6.08185 15.9588 6.09349 15.9783 6.10511C16.021 6.31321 16.0636 6.52131 16.1062 6.72941C16.1062 6.89378 16.1062 7.05816 16.1062 7.22254ZM6.13178 13.4352C5.86851 13.4348 5.6659 13.6301 5.66212 13.888C5.65825 14.1511 5.86406 14.3589 6.12922 14.3597C6.38861 14.3604 6.59515 14.1599 6.59832 13.9042C6.60163 13.6376 6.4008 13.4357 6.13178 13.4352Z" fill="white"/>
</svg>
