<svg width="12" height="13" viewBox="0 0 12 13" fill="none" xmlns="http://www.w3.org/2000/svg">
<path d="M6.125 6.5L11.25 6.5M6.125 1.375L6.125 11.625M3.73333 1.375H8.51667C9.47342 1.375 9.9518 1.375 10.3172 1.5612C10.6387 1.72498 10.9 1.98632 11.0638 2.30777C11.25 2.6732 11.25 3.15158 11.25 4.10833V8.89167C11.25 9.84842 11.25 10.3268 11.0638 10.6922C10.9 11.0137 10.6387 11.275 10.3172 11.4388C9.9518 11.625 9.47342 11.625 8.51667 11.625H3.73333C2.77658 11.625 2.2982 11.625 1.93277 11.4388C1.61132 11.275 1.34998 11.0137 1.1862 10.6922C1 10.3268 1 9.84842 1 8.89167V4.10833C1 3.15158 1 2.6732 1.1862 2.30777C1.34998 1.98632 1.61132 1.72498 1.93277 1.5612C2.2982 1.375 2.77658 1.375 3.73333 1.375Z" stroke="#363BC4" stroke-linecap="round" stroke-linejoin="round"/>
</svg>
