<svg width="13" height="13" viewBox="0 0 13 13" fill="none" xmlns="http://www.w3.org/2000/svg">
<path d="M1 6.38304L6.22127 8.99368C6.2923 9.02919 6.32782 9.04695 6.36507 9.05394C6.39807 9.06013 6.43193 9.06013 6.46493 9.05394C6.50218 9.04695 6.5377 9.02919 6.60873 8.99368L11.83 6.38304M1 9.09054L6.22127 11.7012C6.2923 11.7367 6.32782 11.7545 6.36507 11.7614C6.39807 11.7676 6.43193 11.7676 6.46493 11.7614C6.50218 11.7545 6.5377 11.7367 6.60873 11.7012L11.83 9.09054M1 3.67554L6.22127 1.06491C6.2923 1.02939 6.32782 1.01163 6.36507 1.00464C6.39807 0.998452 6.43193 0.998452 6.46493 1.00464C6.50218 1.01163 6.5377 1.02939 6.60873 1.06491L11.83 3.67554L6.60873 6.28618C6.5377 6.32169 6.50218 6.33945 6.46493 6.34644C6.43193 6.35263 6.39807 6.35263 6.36507 6.34644C6.32782 6.33945 6.2923 6.32169 6.22127 6.28618L1 3.67554Z" stroke="#363BC4" stroke-linecap="round" stroke-linejoin="round"/>
</svg>
